<svg id="svg" version="1.1" xmlns="http://www.w3.org/2000/svg" xmlns:xlink="http://www.w3.org/1999/xlink" width="400" height="157.45526838966205" viewBox="0, 0, 400,157.45526838966205"><g id="svgg"><path id="path0" d="M153.833 52.314 C 153.833 52.839,154.103 52.833,129.486 52.833 L 105.667 52.833 105.667 65.343 C 105.667 72.993,105.603 78.124,105.502 78.551 C 105.412 78.936,105.272 80.358,105.192 81.712 C 105.082 83.559,104.980 84.245,104.784 84.462 C 104.640 84.621,104.469 85.152,104.404 85.641 C 104.337 86.147,104.159 86.650,103.992 86.807 C 103.830 86.959,103.644 87.440,103.580 87.877 C 103.515 88.313,103.320 88.850,103.147 89.070 C 102.975 89.290,102.833 89.570,102.833 89.693 C 102.832 90.000,101.864 91.838,101.480 92.261 C 101.307 92.450,101.167 92.689,101.167 92.791 C 101.167 92.894,100.698 93.556,100.125 94.261 C 99.552 94.967,99.007 95.666,98.915 95.814 C 98.573 96.360,96.401 98.462,95.917 98.716 C 95.642 98.861,95.111 99.265,94.737 99.614 C 94.363 99.964,93.838 100.378,93.570 100.534 C 92.997 100.867,92.177 101.356,91.250 101.915 C 90.547 102.339,89.641 102.795,89.083 103.005 C 87.900 103.453,87.197 103.667,86.911 103.667 C 86.731 103.667,86.189 103.817,85.707 104.000 C 85.118 104.224,84.426 104.333,83.604 104.333 C 82.585 104.333,82.298 104.397,81.902 104.708 L 81.425 105.083 67.438 105.130 C 59.745 105.156,53.387 105.217,53.309 105.265 C 53.150 105.363,53.114 156.368,53.272 156.958 L 53.372 157.333 72.537 157.333 C 88.208 157.333,91.687 157.294,91.619 157.116 C 91.554 156.947,91.851 156.906,92.968 156.929 C 94.373 156.957,94.833 156.813,94.833 156.345 C 94.833 156.029,95.307 156.155,95.417 156.500 C 95.475 156.683,95.592 156.833,95.678 156.833 C 95.763 156.833,95.833 156.946,95.833 157.083 C 95.833 157.221,95.908 157.333,96.000 157.333 C 96.092 157.333,96.167 157.258,96.167 157.167 C 96.167 156.927,96.623 156.961,96.723 157.208 C 96.771 157.327,96.813 157.285,96.820 157.109 C 96.828 156.935,96.689 156.764,96.500 156.715 C 96.317 156.667,96.167 156.569,96.167 156.496 C 96.167 156.424,96.005 156.407,95.807 156.459 C 95.561 156.523,95.485 156.492,95.567 156.360 C 95.959 155.726,98.000 156.309,98.000 157.055 C 98.000 157.428,98.260 157.406,98.667 157.000 C 99.077 156.589,99.093 156.432,98.708 156.566 C 98.431 156.663,98.431 156.657,98.708 156.440 C 98.869 156.315,99.000 156.128,99.000 156.023 C 99.000 155.763,98.503 155.781,98.488 156.042 C 98.482 156.156,98.416 156.100,98.342 155.917 C 98.182 155.518,98.264 155.333,98.603 155.333 C 98.741 155.333,98.807 155.408,98.750 155.500 C 98.693 155.592,98.720 155.667,98.810 155.667 C 98.899 155.667,98.997 155.601,99.028 155.521 C 99.155 155.189,100.933 155.187,101.140 155.519 C 101.307 155.786,101.288 155.833,101.014 155.833 C 100.836 155.833,100.657 155.965,100.615 156.125 C 100.544 156.398,100.537 156.398,100.519 156.128 C 100.475 155.466,99.167 155.560,99.167 156.225 C 99.167 156.670,99.837 156.929,100.158 156.609 C 100.254 156.512,100.333 156.493,100.333 156.565 C 100.333 156.637,100.573 156.495,100.866 156.248 C 101.158 156.002,101.571 155.735,101.782 155.654 C 102.307 155.455,102.284 155.000,101.750 155.000 C 101.491 155.000,101.333 154.906,101.333 154.750 C 101.333 154.612,101.465 154.501,101.625 154.503 C 101.875 154.505,101.881 154.529,101.667 154.674 C 101.475 154.803,101.534 154.832,101.917 154.796 C 102.192 154.771,102.461 154.690,102.515 154.617 C 102.569 154.544,102.809 154.469,103.049 154.450 C 103.289 154.432,103.586 154.280,103.708 154.112 C 104.008 153.702,106.270 153.582,106.696 153.953 C 106.864 154.099,107.115 154.153,107.321 154.087 C 107.725 153.959,107.773 153.697,107.418 153.561 C 107.281 153.508,107.218 153.385,107.278 153.288 C 107.346 153.177,107.286 153.149,107.119 153.213 C 106.943 153.281,106.878 153.243,106.931 153.106 C 106.983 152.971,107.254 152.914,107.683 152.948 C 108.101 152.981,108.315 152.938,108.250 152.834 C 108.193 152.742,108.226 152.667,108.323 152.667 C 108.421 152.667,108.500 152.554,108.500 152.417 C 108.500 152.129,109.415 152.061,109.585 152.336 C 109.728 152.568,110.030 152.359,109.907 152.113 C 109.853 152.005,109.922 152.055,110.060 152.225 C 110.198 152.395,110.380 152.491,110.464 152.439 C 110.549 152.387,110.757 152.446,110.928 152.571 C 111.195 152.766,111.271 152.759,111.465 152.524 C 111.626 152.329,111.655 152.322,111.567 152.500 C 111.485 152.665,111.567 152.641,111.809 152.429 C 112.086 152.186,112.123 152.075,111.962 151.973 C 111.826 151.886,111.928 151.834,112.250 151.825 C 112.694 151.814,112.711 151.796,112.398 151.670 C 111.934 151.482,111.742 150.835,112.176 150.918 C 112.385 150.959,112.452 150.902,112.389 150.739 C 112.319 150.555,112.466 150.497,113.024 150.487 C 113.423 150.480,113.652 150.435,113.533 150.387 C 113.370 150.322,113.391 150.242,113.616 150.072 C 114.066 149.730,114.500 149.777,114.500 150.167 C 114.500 150.350,114.579 150.500,114.677 150.500 C 114.774 150.500,114.810 150.570,114.757 150.655 C 114.525 151.031,115.014 150.967,115.262 150.589 C 115.414 150.357,115.698 150.166,115.894 150.164 C 116.184 150.162,116.203 150.132,116.000 150.003 C 115.786 149.867,115.804 149.790,116.125 149.468 C 116.331 149.262,116.500 149.184,116.500 149.296 C 116.500 149.513,116.967 149.566,117.402 149.399 C 117.547 149.344,117.633 149.247,117.595 149.185 C 117.556 149.122,117.665 149.071,117.836 149.071 C 118.092 149.071,118.112 149.117,117.949 149.327 C 117.774 149.553,117.785 149.556,118.049 149.348 C 118.214 149.219,118.313 149.022,118.271 148.910 C 118.228 148.799,118.281 148.619,118.388 148.510 C 118.538 148.359,118.515 148.339,118.292 148.425 C 118.062 148.512,118.000 148.447,118.000 148.122 C 118.000 147.668,118.256 147.391,118.708 147.356 C 118.869 147.344,119.114 147.321,119.254 147.306 C 119.393 147.290,119.550 147.110,119.601 146.905 C 119.668 146.640,119.802 146.544,120.066 146.573 C 120.590 146.631,121.167 146.387,121.167 146.108 C 121.167 145.968,121.471 145.796,121.917 145.684 C 122.329 145.580,122.667 145.451,122.667 145.396 C 122.667 145.342,122.554 145.341,122.417 145.394 C 122.279 145.446,122.167 145.415,122.167 145.324 C 122.167 145.151,122.980 144.756,123.223 144.811 C 123.299 144.829,123.402 144.691,123.450 144.505 C 123.499 144.319,123.647 144.167,123.779 144.167 C 123.919 144.167,123.970 144.248,123.901 144.359 C 123.815 144.498,123.935 144.521,124.328 144.443 C 124.629 144.383,124.978 144.333,125.104 144.333 C 125.244 144.333,125.331 144.155,125.328 143.875 L 125.322 143.417 124.988 143.818 C 124.633 144.245,124.236 144.113,124.421 143.631 C 124.494 143.442,124.708 143.387,125.226 143.426 C 125.832 143.471,125.934 143.432,125.956 143.143 C 125.988 142.719,126.301 142.333,126.614 142.333 C 126.745 142.333,126.806 142.258,126.749 142.165 C 126.692 142.073,126.777 141.947,126.938 141.886 C 127.106 141.821,127.258 141.857,127.296 141.970 C 127.332 142.078,127.524 142.166,127.722 142.164 C 127.921 142.163,128.008 142.106,127.917 142.039 C 127.314 141.596,127.751 140.855,128.542 140.980 C 128.610 140.991,128.668 140.906,128.669 140.792 C 128.670 140.677,128.764 140.764,128.877 140.985 C 129.157 141.531,129.600 141.579,129.600 141.064 C 129.600 140.845,129.535 140.667,129.455 140.667 C 129.375 140.667,129.197 140.554,129.060 140.417 C 128.837 140.194,128.853 140.166,129.196 140.164 C 129.675 140.161,129.917 139.994,129.917 139.667 C 129.917 139.529,130.085 139.393,130.291 139.364 C 130.573 139.323,130.640 139.375,130.565 139.572 C 130.431 139.921,130.890 139.917,131.182 139.565 C 131.370 139.339,131.360 139.265,131.119 139.089 C 130.762 138.827,130.754 138.667,131.099 138.667 C 131.245 138.667,131.404 138.518,131.451 138.335 C 131.499 138.153,131.590 138.036,131.654 138.076 C 131.718 138.115,132.028 137.924,132.343 137.651 C 132.664 137.373,132.776 137.206,132.598 137.272 C 132.376 137.354,132.315 137.331,132.399 137.195 C 132.465 137.088,132.650 137.000,132.810 137.000 C 132.969 137.000,133.190 136.910,133.300 136.800 C 133.456 136.644,133.500 136.644,133.500 136.800 C 133.500 136.910,133.612 137.000,133.750 137.000 C 133.887 137.000,134.000 136.916,134.000 136.813 C 134.000 136.695,134.178 136.661,134.476 136.720 C 135.316 136.888,135.605 136.321,134.875 135.935 C 134.389 135.678,134.391 135.674,135.292 135.406 C 135.406 135.372,135.500 135.191,135.500 135.005 C 135.500 134.810,135.610 134.667,135.760 134.667 C 135.903 134.667,135.973 134.590,135.915 134.497 C 135.857 134.404,135.741 134.371,135.657 134.423 C 135.573 134.475,135.548 134.401,135.603 134.260 C 135.657 134.118,135.759 134.037,135.829 134.080 C 135.984 134.177,136.537 133.592,136.410 133.465 C 136.360 133.415,136.443 133.327,136.595 133.269 C 136.797 133.191,136.844 133.232,136.770 133.423 C 136.713 133.573,136.741 133.641,136.835 133.582 C 136.926 133.526,137.000 133.372,137.000 133.240 C 137.000 133.108,137.108 133.000,137.240 133.000 C 137.395 133.000,137.457 132.875,137.414 132.652 C 137.355 132.347,137.381 132.331,137.622 132.527 C 137.818 132.685,137.861 132.690,137.772 132.542 C 137.703 132.427,137.726 132.333,137.823 132.333 C 137.921 132.333,137.991 132.277,137.980 132.208 C 137.929 131.886,138.034 131.435,138.113 131.634 C 138.179 131.797,138.261 131.776,138.446 131.551 C 138.581 131.385,138.643 131.344,138.585 131.460 C 138.297 132.028,138.673 132.384,139.126 131.973 C 139.361 131.758,139.490 131.696,139.412 131.833 C 139.289 132.049,139.308 132.052,139.551 131.855 C 139.706 131.729,139.832 131.504,139.831 131.355 C 139.829 131.139,139.799 131.130,139.685 131.309 C 139.579 131.477,139.511 131.485,139.421 131.340 C 139.354 131.232,139.204 131.181,139.087 131.225 C 138.744 131.357,138.882 130.830,139.325 130.316 C 139.706 129.874,139.753 129.860,140.033 130.113 C 140.382 130.429,140.422 130.770,140.125 130.890 C 139.992 130.943,140.015 130.978,140.188 130.987 C 140.560 131.005,140.768 130.686,140.807 130.041 C 140.828 129.679,140.768 129.512,140.628 129.541 C 140.512 129.564,140.417 129.433,140.417 129.250 C 140.417 129.067,140.529 128.913,140.667 128.909 C 140.804 128.905,140.895 128.802,140.868 128.680 C 140.839 128.548,140.916 128.496,141.059 128.551 C 141.238 128.620,141.290 128.518,141.264 128.150 C 141.237 127.760,141.310 127.637,141.615 127.560 C 141.883 127.493,142.000 127.343,142.000 127.065 C 142.000 126.778,142.093 126.667,142.333 126.667 C 142.569 126.667,142.666 126.777,142.664 127.042 C 142.662 127.350,142.631 127.372,142.490 127.167 C 142.355 126.969,142.329 127.003,142.368 127.332 C 142.424 127.807,142.907 127.982,143.060 127.583 C 143.117 127.436,143.098 127.356,143.019 127.405 C 142.940 127.453,142.830 127.214,142.773 126.872 C 142.625 125.975,142.638 125.880,142.925 125.770 C 143.068 125.715,143.143 125.736,143.094 125.816 C 143.044 125.897,143.109 126.049,143.237 126.156 C 143.513 126.385,143.754 126.120,143.569 125.792 C 143.478 125.631,143.500 125.628,143.663 125.779 C 143.828 125.931,143.972 125.883,144.312 125.563 C 144.718 125.181,144.729 125.135,144.463 124.935 C 143.978 124.571,144.259 123.281,144.804 123.371 C 144.985 123.400,145.102 123.284,145.137 123.042 C 145.185 122.703,145.349 122.590,145.708 122.647 C 145.827 122.666,145.870 122.382,145.876 121.542 C 145.878 121.335,145.944 121.167,146.023 121.167 C 146.102 121.167,146.167 121.271,146.167 121.398 C 146.167 122.368,147.168 122.404,147.226 121.436 C 147.239 121.214,147.287 121.053,147.333 121.078 C 147.584 121.218,148.066 120.834,148.117 120.454 C 148.184 119.958,147.725 119.605,147.220 119.763 C 146.936 119.852,146.935 119.846,147.208 119.671 C 147.369 119.568,147.500 119.298,147.500 119.072 C 147.500 118.710,147.555 118.672,147.958 118.760 C 148.275 118.829,148.347 118.811,148.191 118.701 C 148.030 118.588,148.019 118.508,148.152 118.426 C 148.255 118.362,148.299 118.246,148.250 118.167 C 148.201 118.087,148.294 117.924,148.456 117.803 C 148.844 117.513,149.151 116.851,149.137 116.333 C 149.119 115.630,149.155 115.542,149.500 115.452 C 149.699 115.400,149.833 115.224,149.833 115.016 C 149.833 114.707,149.998 114.591,150.365 114.644 C 150.536 114.668,150.651 114.187,150.703 113.225 C 150.729 112.753,150.810 112.403,150.882 112.448 C 151.088 112.574,151.500 112.160,151.500 111.827 C 151.500 111.662,151.594 111.490,151.708 111.444 C 151.875 111.376,151.875 111.357,151.708 111.346 C 151.348 111.324,151.482 110.900,151.922 110.664 C 152.156 110.539,152.307 110.339,152.261 110.219 C 152.215 110.098,152.259 110.000,152.359 110.000 C 152.485 110.000,152.482 109.929,152.348 109.768 C 152.134 109.510,152.563 108.916,152.839 109.087 C 152.920 109.137,153.007 108.631,153.034 107.964 C 153.078 106.878,153.118 106.750,153.417 106.749 C 153.759 106.749,153.781 106.686,153.814 105.638 C 153.831 105.094,153.891 105.014,154.356 104.912 C 154.643 104.849,154.809 104.749,154.725 104.690 C 154.641 104.631,154.584 104.490,154.599 104.375 C 154.613 104.260,154.634 103.867,154.646 103.500 C 154.661 103.028,154.740 102.833,154.917 102.833 C 155.054 102.833,155.167 102.754,155.167 102.657 C 155.167 102.560,155.223 102.515,155.292 102.558 C 155.361 102.601,155.430 102.286,155.444 101.859 C 155.458 101.433,155.477 100.917,155.485 100.714 C 155.496 100.435,155.572 100.370,155.792 100.448 C 155.952 100.506,156.028 100.492,155.961 100.418 C 155.894 100.344,155.969 100.176,156.128 100.046 C 156.300 99.904,156.316 99.860,156.167 99.936 C 155.967 100.038,155.955 100.016,156.108 99.824 C 156.213 99.691,156.279 99.185,156.255 98.699 C 156.221 98.009,156.262 97.834,156.439 97.902 C 156.564 97.950,156.667 97.917,156.667 97.828 C 156.667 97.739,156.757 97.667,156.867 97.667 C 157.022 97.667,157.022 97.711,156.867 97.867 C 156.607 98.126,156.620 98.979,156.892 99.467 L 157.105 99.852 157.302 99.418 C 157.673 98.605,157.409 97.602,156.781 97.438 C 156.468 97.356,156.459 97.320,156.687 97.049 C 156.866 96.835,156.951 96.274,156.982 95.085 C 157.006 94.170,157.078 93.382,157.142 93.335 C 157.697 92.927,157.805 92.342,157.825 89.661 C 157.847 86.611,157.824 86.742,158.262 87.097 C 158.439 87.241,158.505 87.320,158.409 87.273 C 158.303 87.222,158.238 87.435,158.242 87.819 C 158.253 88.701,158.870 88.712,159.010 87.833 C 159.126 87.101,158.926 86.648,158.539 86.772 C 158.360 86.830,158.321 86.811,158.438 86.724 C 158.702 86.527,158.757 70.591,158.494 70.754 C 158.381 70.823,158.331 70.748,158.364 70.558 C 158.402 70.337,158.330 70.265,158.107 70.303 C 157.916 70.336,157.825 70.275,157.869 70.144 C 157.907 70.028,158.148 69.921,158.403 69.908 C 158.897 69.881,159.160 69.607,159.164 69.114 C 159.168 68.632,158.832 68.132,158.571 68.232 C 158.440 68.282,158.326 68.231,158.317 68.120 C 158.289 67.787,158.034 68.715,158.028 69.167 C 158.024 69.545,158.036 69.553,158.167 69.250 C 158.303 68.932,158.310 68.934,158.322 69.292 C 158.329 69.519,158.235 69.667,158.083 69.667 C 157.874 69.667,157.831 69.304,157.819 67.458 C 157.802 64.622,157.785 64.499,157.372 64.164 C 157.067 63.917,157.019 63.670,156.974 62.095 C 156.946 61.110,156.865 60.269,156.795 60.226 C 156.724 60.183,156.667 60.072,156.667 59.980 C 156.667 59.889,156.742 59.860,156.833 59.917 C 157.044 60.047,157.044 59.826,156.833 59.500 C 156.719 59.323,156.671 59.313,156.669 59.465 C 156.667 59.636,156.622 59.638,156.446 59.474 C 156.182 59.227,156.218 57.455,156.489 57.365 C 156.587 57.332,156.667 57.199,156.667 57.069 C 156.667 56.570,157.001 56.862,157.017 57.375 L 157.034 57.917 157.165 57.363 C 157.257 56.976,157.219 56.655,157.039 56.295 C 156.898 56.013,156.775 55.574,156.766 55.322 C 156.757 55.069,156.725 54.887,156.694 54.917 C 156.664 54.948,156.495 54.828,156.319 54.653 C 155.809 54.142,155.748 54.256,155.780 55.667 C 155.797 56.400,155.740 57.000,155.655 57.000 C 155.516 57.000,155.443 56.220,155.466 54.981 C 155.472 54.637,155.398 54.550,155.112 54.564 C 154.813 54.580,154.742 54.481,154.707 54.000 C 154.620 52.830,154.493 52.409,154.167 52.205 C 153.877 52.025,153.833 52.039,153.833 52.314 M155.755 53.992 C 155.694 54.091,155.579 54.132,155.500 54.083 C 155.421 54.035,155.309 54.071,155.252 54.164 C 155.194 54.257,155.245 54.332,155.365 54.331 C 155.674 54.327,156.094 54.038,155.970 53.915 C 155.913 53.858,155.817 53.892,155.755 53.992 M156.167 54.126 C 156.167 54.218,156.279 54.386,156.417 54.500 C 156.556 54.616,156.667 54.634,156.667 54.541 C 156.667 54.449,156.554 54.281,156.417 54.167 C 156.277 54.051,156.167 54.033,156.167 54.126 M157.570 60.724 C 157.402 61.162,157.572 61.744,157.886 61.804 C 158.142 61.853,158.180 61.765,158.136 61.236 C 158.082 60.589,157.741 60.280,157.570 60.724 M158.448 66.108 C 158.221 66.335,158.340 66.595,158.672 66.595 C 158.879 66.595,158.992 66.501,158.964 66.353 C 158.910 66.077,158.618 65.938,158.448 66.108 M159.215 72.331 C 159.168 72.514,159.062 72.622,158.981 72.572 C 158.809 72.466,158.790 73.534,158.941 74.792 C 159.051 75.707,159.230 75.865,159.601 75.375 C 159.809 75.101,159.824 75.104,159.840 75.417 L 159.857 75.750 159.989 75.417 C 160.062 75.233,160.057 74.910,159.978 74.697 C 159.898 74.485,159.833 73.910,159.833 73.419 C 159.833 72.132,159.446 71.450,159.215 72.331 M158.941 82.542 C 158.804 83.689,158.804 84.918,158.943 84.779 C 159.003 84.719,159.156 84.756,159.283 84.861 C 159.659 85.173,159.784 84.844,159.895 83.250 C 159.962 82.284,159.944 81.837,159.842 81.995 C 159.707 82.206,159.669 82.200,159.574 81.954 C 159.353 81.378,159.047 81.662,158.941 82.542 M158.371 90.500 C 158.404 91.035,158.488 91.250,158.667 91.250 C 158.845 91.250,158.930 91.035,158.963 90.500 C 158.996 89.946,158.964 89.815,158.838 90.000 C 158.686 90.222,158.648 90.222,158.496 90.000 C 158.370 89.815,158.337 89.946,158.371 90.500 M157.573 94.882 C 157.381 95.383,157.572 96.750,157.833 96.750 C 158.159 96.750,158.199 94.816,157.875 94.708 C 157.761 94.670,157.625 94.748,157.573 94.882 M154.284 105.105 C 154.226 105.163,154.258 105.360,154.356 105.542 C 154.484 105.781,154.482 105.842,154.350 105.760 C 154.070 105.587,154.132 105.930,154.425 106.174 C 154.800 106.485,155.171 106.062,155.052 105.458 C 154.967 105.028,154.552 104.837,154.284 105.105 M153.595 108.314 C 153.545 108.396,153.609 108.549,153.737 108.656 C 153.997 108.871,154.263 108.624,154.083 108.333 C 153.956 108.127,153.717 108.118,153.595 108.314 M152.870 109.759 C 152.531 109.997,152.315 110.634,152.643 110.432 C 152.721 110.383,152.750 110.529,152.706 110.755 C 152.613 111.245,152.999 111.323,153.355 110.885 C 153.506 110.698,153.514 110.645,153.377 110.727 C 153.237 110.811,153.202 110.768,153.269 110.593 C 153.324 110.451,153.431 110.374,153.507 110.421 C 153.584 110.469,153.635 110.356,153.621 110.170 C 153.607 109.985,153.495 109.833,153.371 109.833 C 153.248 109.833,153.193 109.758,153.250 109.667 C 153.393 109.435,153.301 109.458,152.870 109.759 M151.761 111.982 C 151.698 112.084,151.731 112.167,151.833 112.167 C 151.936 112.167,151.970 112.247,151.910 112.345 C 151.849 112.443,151.691 112.481,151.558 112.430 C 151.425 112.379,151.356 112.402,151.406 112.482 C 151.596 112.790,152.324 112.786,152.605 112.476 C 152.826 112.232,152.836 112.166,152.651 112.164 C 152.460 112.162,152.463 112.131,152.667 112.000 C 152.804 111.911,152.838 111.837,152.742 111.836 C 152.645 111.834,152.474 111.926,152.360 112.040 C 152.195 112.205,152.125 112.201,152.014 112.022 C 151.917 111.866,151.841 111.854,151.761 111.982 M151.118 114.114 C 151.164 114.234,151.298 114.333,151.414 114.333 C 151.531 114.333,151.708 114.234,151.808 114.114 C 151.952 113.940,151.889 113.894,151.512 113.894 C 151.185 113.894,151.060 113.963,151.118 114.114 M144.060 125.250 C 143.960 125.511,143.500 125.602,143.500 125.361 C 143.500 125.157,143.692 125.000,143.939 125.000 C 144.064 125.000,144.115 125.107,144.060 125.250 M124.296 144.863 C 124.441 145.008,124.444 145.117,124.306 145.283 C 124.159 145.460,124.179 145.485,124.398 145.401 C 124.954 145.187,125.066 144.667,124.556 144.667 C 124.206 144.667,124.146 144.712,124.296 144.863 M121.200 146.533 C 120.867 146.866,120.971 147.000,121.563 147.000 C 122.132 147.000,122.661 146.619,122.356 146.430 C 122.267 146.376,122.157 146.425,122.111 146.541 C 122.044 146.707,122.024 146.707,122.013 146.542 C 121.996 146.276,121.462 146.271,121.200 146.533 M120.353 147.125 C 120.403 147.439,120.315 147.563,120.187 147.361 C 120.076 147.186,120.022 147.203,119.931 147.439 C 119.868 147.605,119.869 147.687,119.934 147.621 C 119.999 147.556,120.143 147.578,120.254 147.670 C 120.495 147.870,120.923 147.446,120.755 147.174 C 120.631 146.975,120.323 146.937,120.353 147.125 M118.398 147.935 C 118.225 148.076,118.162 148.153,118.258 148.107 C 118.621 147.931,118.876 148.267,118.594 148.548 C 118.432 148.711,118.395 148.852,118.499 148.916 C 118.591 148.973,118.667 148.928,118.667 148.815 C 118.667 148.703,118.716 148.660,118.775 148.720 C 118.882 148.827,119.318 148.363,119.328 148.131 C 119.342 147.821,118.704 147.687,118.398 147.935 M117.882 148.500 C 117.931 148.688,117.900 148.791,117.810 148.736 C 117.723 148.682,117.528 148.738,117.377 148.861 C 117.146 149.049,117.125 149.047,117.244 148.849 C 117.353 148.668,117.304 148.636,117.026 148.708 C 116.828 148.760,116.708 148.734,116.760 148.651 C 116.811 148.568,116.966 148.500,117.103 148.500 C 117.241 148.500,117.307 148.425,117.250 148.333 C 117.193 148.242,117.293 148.167,117.471 148.167 C 117.654 148.167,117.832 148.311,117.882 148.500 M116.033 149.200 C 115.878 149.356,115.789 149.356,115.633 149.200 C 115.478 149.044,115.522 149.000,115.833 149.000 C 116.144 149.000,116.189 149.044,116.033 149.200 M111.500 151.500 C 111.695 151.626,111.649 151.662,111.292 151.664 C 111.040 151.666,110.833 151.592,110.833 151.500 C 110.833 151.289,111.174 151.289,111.500 151.500 M108.500 153.383 C 108.500 153.594,108.406 153.864,108.292 153.983 C 108.123 154.158,108.147 154.187,108.417 154.135 C 108.671 154.087,108.742 153.955,108.715 153.577 C 108.696 153.306,108.721 153.177,108.771 153.292 C 108.900 153.590,109.175 153.550,109.060 153.250 C 108.910 152.857,108.500 152.955,108.500 153.383 M105.187 154.392 C 105.010 154.605,105.091 154.833,105.343 154.833 C 105.530 154.833,105.670 154.355,105.512 154.257 C 105.434 154.209,105.288 154.270,105.187 154.392 " stroke="none" fill="#04a4e4" fill-rule="evenodd"></path><path id="path1" d="M0.000 52.417 L 0.000 104.833 26.292 104.833 L 52.583 104.833 52.539 78.848 C 52.499 55.241,52.519 52.838,52.761 52.596 C 53.002 52.355,55.446 52.331,79.097 52.335 L 105.166 52.339 105.208 27.852 C 105.236 11.558,105.194 3.401,105.083 3.472 C 104.780 3.665,104.584 3.593,104.493 3.253 C 104.431 3.017,104.237 2.901,103.849 2.863 L 103.294 2.809 103.747 2.336 C 104.283 1.777,104.109 1.601,102.817 1.395 C 102.402 1.328,101.977 1.136,101.821 0.944 C 101.401 0.425,99.697 0.340,99.265 0.816 C 99.091 1.009,98.866 1.166,98.766 1.164 C 98.664 1.163,98.681 1.100,98.805 1.021 C 98.961 0.922,98.862 0.844,98.472 0.758 C 98.166 0.691,98.010 0.599,98.125 0.554 C 98.240 0.509,98.333 0.366,98.333 0.236 C 98.333 -0.068,96.064 -0.108,95.963 0.194 C 95.881 0.441,93.446 0.421,93.363 0.173 C 93.324 0.054,78.750 0.000,46.653 0.000 L 0.000 0.000 0.000 52.417 M98.309 1.095 C 98.341 1.123,98.116 1.138,97.809 1.129 C 97.501 1.120,97.344 1.081,97.459 1.042 C 97.575 1.003,97.622 0.895,97.564 0.802 C 97.480 0.666,98.084 0.904,98.309 1.095 M101.125 1.953 C 100.873 1.991,100.460 1.991,100.208 1.953 C 99.956 1.915,100.162 1.883,100.667 1.883 C 101.171 1.883,101.377 1.915,101.125 1.953 M129.262 16.278 C 129.204 16.431,129.233 16.633,129.328 16.728 C 129.446 16.846,129.500 16.812,129.500 16.617 C 129.500 16.424,129.636 16.333,129.927 16.333 C 130.168 16.333,130.308 16.261,130.250 16.167 C 130.083 15.897,129.378 15.976,129.262 16.278 M236.500 53.631 C 236.500 53.811,236.624 53.929,236.812 53.929 C 237.071 53.929,237.093 53.877,236.939 53.631 C 236.837 53.467,236.696 53.333,236.627 53.333 C 236.557 53.333,236.500 53.467,236.500 53.631 M369.204 74.863 C 369.061 75.006,369.057 75.118,369.191 75.279 C 369.464 75.608,369.583 75.548,369.583 75.083 C 369.583 74.621,369.496 74.571,369.204 74.863 M303.074 79.681 C 303.013 79.781,303.046 79.946,303.148 80.048 C 303.284 80.184,303.333 80.136,303.333 79.867 C 303.333 79.464,303.247 79.402,303.074 79.681 M248.377 104.414 C 248.246 104.562,248.231 104.687,248.335 104.751 C 248.559 104.890,248.833 104.700,248.833 104.407 C 248.833 104.106,248.646 104.109,248.377 104.414 " stroke="none" fill="#eb3c44" fill-rule="evenodd"></path><path id="path2" d="M52.762 52.595 C 52.448 52.909,52.353 103.591,52.665 104.412 L 52.829 104.845 66.123 104.773 C 74.460 104.728,79.883 104.634,80.667 104.520 C 81.354 104.420,82.554 104.272,83.333 104.192 C 84.112 104.112,84.975 103.924,85.250 103.774 C 85.525 103.625,85.886 103.502,86.051 103.501 C 86.592 103.499,89.290 102.513,90.503 101.874 C 92.625 100.756,93.839 100.038,94.083 99.757 C 94.175 99.651,94.775 99.163,95.417 98.674 C 98.705 96.163,102.887 90.323,103.447 87.460 C 103.506 87.161,103.646 86.767,103.758 86.583 C 103.871 86.400,104.015 85.950,104.079 85.583 C 104.142 85.217,104.331 84.504,104.497 84.000 C 105.136 82.070,105.567 53.134,104.967 52.533 C 104.621 52.188,53.108 52.249,52.762 52.595 " stroke="none" fill="#fbfbfb" fill-rule="evenodd"></path><path id="path3" d="M98.333 0.236 C 98.333 0.366,98.240 0.509,98.125 0.554 C 98.010 0.599,98.166 0.691,98.472 0.758 C 98.862 0.844,98.961 0.922,98.805 1.021 C 98.683 1.098,98.653 1.163,98.739 1.164 C 99.029 1.169,99.643 0.466,99.553 0.232 C 99.432 -0.085,98.333 -0.081,98.333 0.236 M97.564 0.802 C 97.622 0.895,97.575 1.003,97.459 1.042 C 97.344 1.081,97.501 1.120,97.809 1.129 C 98.424 1.147,98.426 1.137,97.855 0.839 C 97.638 0.726,97.507 0.709,97.564 0.802 M105.093 2.708 C 104.881 3.405,104.869 3.678,105.055 3.524 C 105.204 3.400,105.238 8.983,105.199 27.139 C 105.171 40.217,105.194 51.235,105.251 51.625 L 105.354 52.333 128.969 52.331 C 141.957 52.330,152.868 52.283,153.215 52.225 L 153.847 52.121 153.799 50.935 C 153.754 49.850,153.718 49.745,153.375 49.697 C 153.038 49.649,153.000 49.551,153.000 48.725 C 153.000 47.681,153.356 47.531,153.500 48.513 C 153.618 49.319,154.067 49.280,154.135 48.457 C 154.172 48.009,154.113 47.802,153.927 47.731 C 153.753 47.664,153.667 47.416,153.667 46.981 C 153.667 46.536,153.561 46.240,153.333 46.045 C 153.146 45.884,153.000 45.553,153.000 45.288 C 153.000 45.000,152.838 44.668,152.583 44.431 C 152.354 44.219,152.167 43.881,152.167 43.681 C 152.167 43.481,151.979 43.144,151.750 42.931 C 151.521 42.719,151.333 42.463,151.333 42.362 C 151.333 42.198,150.827 41.833,150.601 41.833 C 150.552 41.833,150.360 41.997,150.173 42.198 L 149.833 42.563 149.833 41.781 C 149.833 41.127,149.782 41.000,149.519 41.000 C 149.297 41.000,149.183 40.853,149.131 40.500 C 149.049 39.942,149.240 39.864,149.692 40.273 C 149.971 40.526,150.001 40.524,150.106 40.252 C 150.178 40.064,150.120 39.904,149.942 39.804 C 149.791 39.720,149.667 39.476,149.667 39.264 C 149.667 39.052,149.517 38.688,149.333 38.455 C 149.150 38.221,149.000 37.872,149.000 37.678 C 149.000 37.464,148.836 37.252,148.583 37.136 C 148.354 37.032,148.167 36.814,148.167 36.652 C 148.167 36.490,147.987 36.217,147.768 36.044 C 147.549 35.872,147.342 35.587,147.309 35.411 C 147.275 35.236,147.079 35.008,146.875 34.906 C 146.670 34.804,146.359 34.591,146.184 34.433 C 145.976 34.244,145.828 34.206,145.757 34.322 C 145.696 34.420,145.539 34.500,145.407 34.500 C 145.079 34.500,145.088 33.566,145.417 33.440 C 145.746 33.314,145.738 32.684,145.407 32.556 C 145.264 32.502,145.030 32.166,144.889 31.812 C 144.747 31.457,144.562 31.167,144.478 31.167 C 144.394 31.167,144.248 30.965,144.155 30.719 C 144.061 30.472,143.838 30.168,143.659 30.042 C 143.480 29.917,143.333 29.711,143.333 29.585 C 143.333 29.459,143.187 29.309,143.009 29.253 C 142.830 29.196,142.636 28.999,142.578 28.815 C 142.519 28.631,142.290 28.412,142.069 28.328 C 141.842 28.241,141.667 28.039,141.667 27.863 C 141.667 27.692,141.517 27.416,141.333 27.250 C 141.150 27.084,141.000 26.860,141.000 26.752 C 141.000 26.562,138.598 24.056,137.526 23.128 C 137.237 22.877,137.000 22.600,137.000 22.512 C 137.000 22.424,136.862 22.254,136.693 22.134 C 136.524 22.015,136.297 21.748,136.187 21.542 C 136.078 21.335,135.906 21.167,135.805 21.167 C 135.704 21.167,135.453 20.998,135.248 20.792 C 135.042 20.585,134.653 20.224,134.383 19.988 C 134.113 19.753,133.843 19.432,133.783 19.276 C 133.723 19.120,133.552 18.945,133.402 18.888 C 132.999 18.733,131.883 17.719,131.005 16.708 C 130.507 16.136,129.576 16.184,129.414 16.792 C 129.347 17.044,129.257 17.153,129.213 17.035 C 129.058 16.613,129.330 16.000,129.671 16.000 C 129.977 16.000,129.968 15.961,129.557 15.500 C 129.304 15.216,128.944 15.000,128.724 15.000 C 128.493 15.000,127.965 14.664,127.417 14.167 C 126.911 13.708,126.383 13.333,126.244 13.333 C 126.105 13.333,125.920 13.146,125.833 12.917 C 125.746 12.688,125.566 12.500,125.432 12.500 C 125.298 12.500,125.143 12.354,125.086 12.175 C 125.029 11.997,124.818 11.799,124.616 11.736 C 124.415 11.672,124.071 11.481,123.853 11.310 C 123.634 11.140,123.289 11.000,123.087 11.000 C 122.884 11.000,122.583 10.850,122.417 10.667 C 122.052 10.264,121.667 10.488,121.667 11.104 C 121.667 11.607,121.374 11.624,121.303 11.125 C 121.268 10.879,121.116 10.731,120.861 10.695 C 120.492 10.643,120.487 10.624,120.756 10.326 C 121.099 9.948,120.978 9.547,120.463 9.350 C 120.254 9.270,119.940 9.046,119.766 8.852 C 119.591 8.659,119.319 8.500,119.160 8.500 C 119.001 8.500,118.749 8.313,118.599 8.083 C 118.449 7.854,118.189 7.667,118.022 7.667 C 117.855 7.667,117.586 7.521,117.425 7.343 C 117.264 7.165,116.900 6.968,116.617 6.906 C 116.334 6.844,115.999 6.689,115.873 6.563 C 115.576 6.267,114.928 6.268,114.682 6.565 C 114.529 6.749,114.585 6.869,114.953 7.143 L 115.417 7.489 114.960 7.495 C 114.679 7.498,114.422 7.371,114.295 7.167 C 114.180 6.983,114.005 6.833,113.905 6.833 C 113.797 6.833,113.755 6.622,113.802 6.306 C 113.888 5.716,113.535 5.333,112.904 5.333 C 112.698 5.333,112.419 5.152,112.265 4.917 C 112.067 4.614,111.844 4.500,111.452 4.500 C 111.052 4.500,110.870 4.403,110.748 4.125 C 110.621 3.836,110.422 3.738,109.876 3.699 C 109.381 3.663,109.116 3.550,108.995 3.324 C 108.877 3.104,108.646 3.000,108.276 3.000 C 107.976 3.000,107.585 2.890,107.407 2.755 C 106.996 2.445,105.184 2.408,105.093 2.708 M107.126 3.458 C 107.175 3.607,106.950 3.667,106.347 3.667 C 105.862 3.667,105.500 3.591,105.500 3.490 C 105.500 3.393,105.570 3.357,105.655 3.410 C 105.740 3.462,105.860 3.425,105.921 3.327 C 106.068 3.088,107.039 3.194,107.126 3.458 M108.458 4.282 C 108.298 4.323,108.035 4.323,107.875 4.282 C 107.715 4.240,107.846 4.205,108.167 4.205 C 108.487 4.205,108.619 4.240,108.458 4.282 M119.833 9.750 C 119.833 9.887,119.712 10.000,119.563 10.000 C 119.341 10.000,119.330 9.955,119.500 9.750 C 119.614 9.612,119.736 9.500,119.770 9.500 C 119.805 9.500,119.833 9.612,119.833 9.750 M140.679 27.379 C 140.672 27.446,140.667 27.650,140.667 27.833 C 140.667 28.017,140.592 28.167,140.500 28.167 C 140.408 28.167,140.333 27.935,140.333 27.653 C 140.333 27.360,140.411 27.165,140.512 27.199 C 140.611 27.231,140.686 27.313,140.679 27.379 M147.038 36.208 C 146.945 36.323,146.832 36.567,146.787 36.750 C 146.733 36.969,146.699 36.897,146.686 36.542 C 146.672 36.145,146.739 36.000,146.937 36.000 C 147.132 36.000,147.161 36.058,147.038 36.208 M148.664 38.708 C 148.658 39.184,148.338 39.428,148.336 38.958 C 148.334 38.706,148.408 38.500,148.500 38.500 C 148.592 38.500,148.666 38.594,148.664 38.708 M150.782 43.958 C 150.740 44.119,150.705 43.987,150.705 43.667 C 150.705 43.346,150.740 43.215,150.782 43.375 C 150.823 43.535,150.823 43.798,150.782 43.958 M190.250 50.333 C 189.955 50.810,190.757 50.833,207.468 50.831 C 223.768 50.828,225.198 50.789,224.928 50.352 C 224.775 50.105,190.403 50.086,190.250 50.333 M262.574 50.348 C 262.292 50.805,263.377 50.833,279.590 50.792 C 295.459 50.752,296.415 50.733,296.468 50.458 C 296.537 50.103,262.794 49.993,262.574 50.348 M336.575 50.347 C 336.513 50.447,336.531 50.598,336.615 50.682 C 336.907 50.974,370.417 50.793,370.417 50.500 C 370.417 50.180,336.772 50.028,336.575 50.347 M154.259 51.037 C 153.917 51.526,153.920 52.167,154.266 52.167 C 154.412 52.167,154.568 52.309,154.614 52.483 C 154.699 52.808,155.048 52.852,155.327 52.573 C 155.525 52.375,155.227 50.975,154.949 50.798 C 154.641 50.603,154.539 50.638,154.259 51.037 M228.991 50.928 C 228.551 51.458,229.002 51.757,230.146 51.692 C 230.919 51.649,231.167 51.689,231.167 51.859 C 231.167 52.219,227.667 52.064,227.395 51.692 C 227.210 51.439,225.662 51.417,208.055 51.417 L 188.917 51.417 188.917 84.250 L 188.917 117.083 208.250 117.167 C 218.938 117.213,227.485 117.313,227.364 117.391 C 227.244 117.469,218.769 117.522,208.531 117.509 C 191.973 117.488,189.880 117.513,189.583 117.742 L 189.250 118.000 189.583 118.259 C 190.105 118.664,227.543 118.552,228.167 118.144 C 228.401 117.990,229.080 117.834,229.716 117.787 C 230.380 117.738,230.967 117.600,231.133 117.453 C 231.289 117.316,231.739 117.150,232.134 117.085 C 232.563 117.015,232.930 116.840,233.049 116.651 C 233.174 116.451,233.436 116.333,233.758 116.333 C 234.362 116.333,234.783 116.047,234.862 115.583 C 234.909 115.311,235.072 115.240,235.747 115.198 C 237.015 115.118,237.469 114.500,236.261 114.500 C 235.956 114.500,235.614 114.388,235.500 114.250 C 235.320 114.033,235.405 114.000,236.136 114.000 C 236.601 114.000,237.027 114.075,237.083 114.167 C 237.322 114.553,238.194 114.359,239.583 113.609 C 239.858 113.461,240.327 113.224,240.625 113.084 C 240.923 112.944,241.167 112.746,241.167 112.645 C 241.167 112.544,241.485 112.153,241.875 111.776 C 242.265 111.400,242.660 110.940,242.754 110.754 C 242.861 110.543,243.125 110.397,243.462 110.364 C 243.758 110.336,244.000 110.248,244.000 110.169 C 244.000 110.091,244.225 109.977,244.500 109.917 C 244.775 109.856,245.000 109.738,245.000 109.653 C 245.000 109.452,246.287 108.167,246.489 108.167 C 246.574 108.167,246.692 108.017,246.750 107.833 C 246.808 107.650,246.965 107.500,247.099 107.500 C 247.232 107.500,247.408 107.331,247.489 107.125 C 247.570 106.919,247.793 106.619,247.985 106.460 C 248.176 106.300,248.333 106.065,248.333 105.936 C 248.333 105.808,248.446 105.659,248.583 105.606 C 248.948 105.466,248.912 104.697,248.542 104.727 C 248.381 104.740,248.210 104.894,248.162 105.071 C 248.012 105.620,247.667 105.580,247.667 105.014 C 247.667 104.582,247.731 104.500,248.069 104.500 C 248.291 104.500,248.516 104.406,248.569 104.292 C 248.637 104.148,248.694 104.140,248.756 104.267 C 248.905 104.575,249.682 104.315,249.874 103.895 C 249.973 103.678,250.161 103.500,250.292 103.500 C 250.424 103.500,250.570 103.353,250.616 103.174 C 250.663 102.995,250.881 102.731,251.101 102.587 C 251.375 102.407,251.500 102.169,251.500 101.825 C 251.500 101.445,251.600 101.287,251.917 101.167 C 252.202 101.058,252.333 100.882,252.333 100.608 C 252.333 100.388,252.446 100.114,252.583 100.000 C 252.865 99.766,252.922 98.908,252.667 98.750 C 252.388 98.578,252.455 96.500,252.739 96.500 C 252.888 96.500,252.999 96.706,253.031 97.042 C 253.103 97.791,253.565 97.774,253.637 97.020 C 253.667 96.711,253.610 96.377,253.512 96.279 C 253.414 96.180,253.338 95.871,253.344 95.592 C 253.353 95.158,253.375 95.133,253.492 95.422 C 253.863 96.337,254.480 96.181,254.735 95.108 C 254.797 94.847,255.000 94.428,255.185 94.178 C 255.425 93.853,255.531 93.428,255.553 92.701 C 255.577 91.895,255.653 91.630,255.917 91.437 C 256.212 91.222,256.254 90.979,256.285 89.316 C 256.313 87.823,256.373 87.408,256.577 87.294 C 256.938 87.092,256.962 80.648,256.603 80.350 C 256.448 80.221,256.351 79.653,256.305 78.603 C 256.257 77.518,256.152 76.919,255.956 76.619 C 255.801 76.383,255.628 75.866,255.571 75.470 C 255.514 75.074,255.331 74.556,255.165 74.319 C 254.999 74.082,254.799 73.558,254.719 73.155 C 254.614 72.624,254.460 72.365,254.162 72.218 C 253.887 72.081,253.722 71.832,253.667 71.467 C 253.543 70.655,253.000 70.604,253.000 71.404 C 253.000 71.823,252.926 72.000,252.750 72.000 C 252.456 72.000,252.379 69.928,252.667 69.750 C 252.913 69.598,252.859 68.798,252.578 68.426 C 252.443 68.249,252.333 67.943,252.333 67.747 C 252.333 67.552,252.146 67.215,251.917 67.000 C 251.688 66.785,251.500 66.513,251.500 66.397 C 251.500 66.281,251.361 66.088,251.191 65.968 C 251.020 65.848,250.829 65.585,250.765 65.384 C 250.702 65.182,250.507 64.972,250.333 64.917 C 250.159 64.861,249.971 64.670,249.914 64.491 C 249.763 64.016,248.868 64.044,248.688 64.530 C 248.571 64.847,248.540 64.812,248.449 64.253 C 248.369 63.758,248.411 63.560,248.631 63.389 C 248.884 63.192,248.888 63.143,248.665 62.958 C 248.526 62.844,248.321 62.544,248.210 62.292 C 248.098 62.040,247.929 61.833,247.833 61.833 C 247.737 61.833,247.587 61.646,247.500 61.417 C 247.413 61.188,247.239 61.000,247.114 61.000 C 246.989 61.000,246.801 60.813,246.697 60.583 C 246.593 60.354,246.396 60.167,246.259 60.167 C 246.123 60.167,245.934 60.022,245.839 59.845 C 245.745 59.667,245.510 59.473,245.317 59.412 C 244.881 59.273,244.333 58.738,244.333 58.450 C 244.333 58.181,243.998 57.833,243.739 57.833 C 243.631 57.833,243.206 57.496,242.794 57.083 C 242.367 56.657,241.888 56.333,241.683 56.333 C 241.485 56.333,241.280 56.221,241.227 56.083 C 241.015 55.531,239.684 54.833,238.843 54.833 C 238.137 54.833,238.024 54.785,237.939 54.445 C 237.824 53.987,237.160 53.631,236.818 53.844 C 236.643 53.954,236.562 53.877,236.499 53.539 C 236.447 53.261,236.287 53.063,236.082 53.024 C 235.900 52.988,235.585 52.781,235.383 52.563 C 235.142 52.303,234.830 52.167,234.477 52.167 C 234.154 52.167,233.785 52.022,233.555 51.807 C 233.267 51.537,232.975 51.450,232.378 51.461 C 231.833 51.470,231.478 51.380,231.250 51.175 C 230.769 50.743,229.279 50.580,228.991 50.928 M300.871 51.029 C 300.530 51.370,300.973 51.667,301.820 51.667 C 302.692 51.667,303.105 51.411,302.809 51.054 C 302.581 50.779,301.139 50.761,300.871 51.029 M374.851 50.986 C 374.331 51.315,374.795 51.667,375.750 51.667 C 376.446 51.667,376.703 51.600,376.780 51.400 C 376.918 51.038,376.551 50.838,375.750 50.838 C 375.383 50.838,374.979 50.905,374.851 50.986 M261.238 52.125 C 261.157 52.607,261.080 52.777,261.043 52.559 C 260.925 51.874,260.411 51.583,260.100 52.027 C 259.666 52.647,259.701 115.902,260.136 116.467 C 260.467 116.897,260.881 116.644,261.037 115.917 C 261.085 115.697,261.163 115.838,261.268 116.333 L 261.427 117.083 272.672 117.127 C 283.095 117.167,283.932 117.149,284.125 116.886 C 284.289 116.664,284.342 112.154,284.374 95.926 L 284.414 75.250 284.499 95.766 C 284.590 117.813,284.576 117.477,285.368 116.499 C 285.651 116.149,285.667 115.103,285.669 96.023 C 285.671 84.965,285.734 75.818,285.811 75.697 C 286.153 75.157,297.735 75.618,298.134 76.188 C 298.273 76.387,298.554 76.500,298.907 76.500 C 299.320 76.500,299.483 76.584,299.548 76.832 C 299.596 77.015,299.773 77.217,299.943 77.280 C 300.363 77.438,301.777 78.892,301.906 79.301 C 302.035 79.705,302.774 79.923,303.099 79.653 C 303.288 79.497,303.333 79.529,303.333 79.823 C 303.333 80.023,303.258 80.140,303.167 80.083 C 302.908 79.924,302.963 81.429,303.224 81.645 C 303.518 81.889,303.667 81.719,303.667 81.139 C 303.667 80.832,303.753 80.667,303.914 80.667 C 304.132 80.667,304.168 82.839,304.206 98.403 L 304.250 116.139 304.625 116.464 C 304.831 116.643,305.000 116.874,305.000 116.978 C 305.000 117.117,307.940 117.167,316.083 117.167 L 327.167 117.167 327.167 97.750 C 327.167 78.444,327.165 78.333,326.833 78.333 C 326.526 78.333,326.500 78.221,326.496 76.875 C 326.494 76.073,326.427 75.135,326.347 74.792 C 326.267 74.448,326.264 74.167,326.339 74.167 C 326.983 74.167,327.247 72.657,326.667 72.295 C 326.442 72.155,326.333 71.906,326.333 71.535 C 326.333 71.161,326.199 70.860,325.917 70.598 C 325.688 70.386,325.500 70.055,325.500 69.864 C 325.500 69.673,325.313 69.315,325.083 69.068 C 324.854 68.820,324.667 68.511,324.667 68.380 C 324.667 67.713,323.818 67.458,323.537 68.042 L 323.356 68.417 323.345 67.992 C 323.338 67.758,323.405 67.495,323.493 67.407 C 323.591 67.309,323.594 67.152,323.500 67.000 C 323.378 66.803,323.305 66.795,323.140 66.960 C 322.800 67.300,322.542 67.196,322.467 66.687 C 322.418 66.351,322.487 66.151,322.698 66.019 C 323.095 65.771,323.081 65.387,322.667 65.128 C 322.483 65.013,322.333 64.827,322.333 64.714 C 322.333 64.600,322.146 64.385,321.917 64.235 C 321.688 64.085,321.500 63.836,321.500 63.682 C 321.500 63.314,320.083 61.929,319.852 62.072 C 319.753 62.133,319.603 62.423,319.518 62.717 L 319.363 63.250 319.348 62.556 C 319.339 62.139,319.417 61.831,319.542 61.787 C 319.686 61.735,319.635 61.588,319.375 61.304 C 319.169 61.079,319.000 60.833,319.000 60.756 C 319.000 60.104,317.475 59.302,317.165 59.792 C 317.022 60.018,316.960 60.033,316.888 59.859 C 316.837 59.735,316.578 59.388,316.314 59.087 C 316.050 58.786,315.833 58.456,315.833 58.354 C 315.833 58.253,315.683 58.076,315.500 57.961 C 315.317 57.847,315.167 57.660,315.167 57.547 C 315.167 57.434,314.979 57.218,314.750 57.068 C 314.521 56.918,314.333 56.689,314.333 56.560 C 314.333 56.431,314.162 56.260,313.951 56.180 C 313.741 56.100,313.470 55.914,313.348 55.767 C 313.226 55.620,312.878 55.500,312.575 55.500 C 312.272 55.500,311.911 55.387,311.774 55.250 C 311.482 54.958,311.054 54.921,310.967 55.181 C 310.929 55.298,310.682 55.320,310.278 55.244 C 309.676 55.131,309.664 55.116,309.992 54.887 C 310.557 54.491,310.189 53.833,309.401 53.833 C 309.127 53.833,308.930 53.696,308.803 53.417 C 308.699 53.188,308.481 53.000,308.319 53.000 C 308.158 53.000,307.803 52.813,307.530 52.583 C 307.258 52.354,306.864 52.167,306.656 52.167 C 306.447 52.167,306.141 52.044,305.976 51.895 C 305.352 51.331,303.760 51.275,303.590 51.812 C 303.456 52.236,299.927 52.098,299.354 51.647 C 298.969 51.344,298.307 51.333,280.163 51.333 L 261.371 51.333 261.238 52.125 M335.278 51.444 C 335.217 51.506,335.167 51.778,335.167 52.050 L 335.167 52.545 334.813 52.096 L 334.460 51.646 334.063 52.019 L 333.667 52.391 333.667 84.250 L 333.667 116.109 334.049 116.468 C 334.449 116.843,334.952 116.579,335.024 115.956 C 335.037 115.843,335.093 116.050,335.149 116.417 L 335.250 117.083 346.520 117.126 C 356.851 117.165,357.810 117.146,358.020 116.892 C 358.212 116.662,358.264 113.170,358.333 95.933 L 358.417 75.250 358.500 95.565 C 358.578 114.555,358.602 115.892,358.870 116.061 C 359.593 116.517,359.579 116.884,359.667 95.700 L 359.750 75.583 364.583 75.500 C 367.282 75.453,369.321 75.355,369.200 75.277 C 369.034 75.169,369.029 75.083,369.179 74.902 C 369.346 74.700,368.693 74.667,364.614 74.667 C 361.620 74.667,359.815 74.605,359.750 74.500 C 359.682 74.390,361.349 74.333,364.627 74.333 L 369.607 74.333 369.571 74.990 L 369.535 75.647 370.466 75.763 C 371.008 75.831,371.536 76.009,371.730 76.190 C 371.913 76.360,372.171 76.500,372.304 76.500 C 372.437 76.500,372.719 76.688,372.931 76.917 C 373.155 77.158,373.502 77.333,373.758 77.333 C 374.055 77.333,374.226 77.440,374.284 77.661 C 374.331 77.841,374.505 78.032,374.671 78.085 C 374.837 78.137,375.050 78.403,375.145 78.676 C 375.240 78.948,375.434 79.216,375.575 79.270 C 375.725 79.327,375.833 79.569,375.833 79.844 C 375.833 80.121,375.998 80.483,376.228 80.713 C 376.867 81.352,376.880 81.674,376.944 99.075 C 377.006 115.694,377.024 116.211,377.534 115.896 C 377.607 115.851,377.667 108.474,377.667 99.503 C 377.667 87.039,377.716 82.983,377.875 82.304 C 378.047 81.569,378.098 84.486,378.167 99.250 L 378.250 117.083 389.125 117.126 L 400.000 117.169 400.000 96.168 C 400.000 82.278,399.944 75.167,399.833 75.167 C 399.742 75.167,399.667 74.754,399.667 74.250 C 399.667 73.746,399.742 73.333,399.833 73.333 C 400.101 73.333,400.042 71.385,399.771 71.281 C 399.645 71.233,399.492 70.926,399.431 70.599 C 399.368 70.263,399.177 69.928,398.993 69.829 C 398.813 69.733,398.664 69.526,398.661 69.369 C 398.644 68.426,397.828 68.308,397.377 69.183 C 397.187 69.554,397.171 69.526,397.169 68.792 C 397.167 68.112,397.120 68.000,396.833 68.000 C 396.574 68.000,396.500 67.889,396.500 67.500 C 396.500 66.949,396.679 66.863,397.006 67.257 C 397.151 67.432,397.274 67.460,397.389 67.344 C 397.504 67.229,397.475 67.080,397.298 66.879 C 397.154 66.716,396.987 66.347,396.926 66.059 C 396.865 65.771,396.669 65.403,396.491 65.241 C 396.312 65.080,396.167 64.852,396.167 64.734 C 396.167 64.616,396.030 64.421,395.864 64.301 C 395.698 64.181,395.512 63.950,395.451 63.788 C 395.391 63.625,395.208 63.443,395.045 63.382 C 394.883 63.322,394.363 62.855,393.891 62.344 C 393.418 61.834,392.887 61.267,392.711 61.083 C 392.535 60.900,392.343 60.619,392.284 60.458 C 392.225 60.298,392.060 60.167,391.918 60.167 C 391.775 60.167,391.587 59.979,391.500 59.750 C 391.413 59.521,391.228 59.333,391.089 59.333 C 390.949 59.333,390.320 58.808,389.689 58.167 C 389.059 57.525,388.469 57.000,388.377 57.000 C 388.285 57.000,387.873 56.663,387.461 56.250 C 386.975 55.765,386.565 55.500,386.298 55.500 C 386.071 55.500,385.749 55.350,385.583 55.167 C 385.268 54.818,384.427 54.713,384.250 55.000 C 384.193 55.092,383.833 55.160,383.448 55.152 L 382.750 55.137 383.300 54.978 C 384.192 54.721,384.080 53.857,383.152 53.839 C 383.006 53.836,382.801 53.646,382.697 53.417 C 382.540 53.073,382.390 53.000,381.837 53.000 C 381.359 53.000,381.167 52.930,381.167 52.756 C 381.167 52.422,380.638 52.167,379.948 52.167 C 379.625 52.167,379.277 52.050,379.152 51.899 C 378.717 51.375,378.173 51.300,377.425 51.662 C 376.444 52.138,374.178 52.140,373.250 51.667 C 372.589 51.330,335.609 51.113,335.278 51.444 M379.000 52.583 C 379.000 52.772,378.796 52.833,378.167 52.833 C 377.708 52.833,377.333 52.765,377.333 52.683 C 377.333 52.600,377.624 52.571,377.978 52.618 C 378.364 52.670,378.670 52.630,378.738 52.519 C 378.897 52.262,379.000 52.287,379.000 52.583 M187.863 52.704 C 187.557 53.010,187.581 115.555,187.887 115.809 C 188.503 116.320,188.500 116.462,188.500 84.237 C 188.500 51.590,188.509 52.057,187.863 52.704 M305.127 52.781 C 304.968 52.823,304.668 52.824,304.460 52.785 C 304.253 52.745,304.383 52.711,304.750 52.709 C 305.117 52.707,305.286 52.739,305.127 52.781 M380.458 53.615 C 380.298 53.657,380.035 53.657,379.875 53.615 C 379.715 53.573,379.846 53.539,380.167 53.539 C 380.488 53.539,380.619 53.573,380.458 53.615 M385.459 55.792 C 385.504 55.928,385.350 56.000,385.014 56.000 C 384.659 56.000,384.500 55.919,384.500 55.739 C 384.500 55.421,385.353 55.468,385.459 55.792 M156.445 57.958 C 156.285 58.228,156.430 58.893,156.667 58.972 C 156.858 59.035,156.875 58.999,156.740 58.819 C 156.537 58.549,156.532 58.339,156.721 58.042 C 156.794 57.926,156.779 57.833,156.686 57.833 C 156.595 57.833,156.486 57.890,156.445 57.958 M248.167 63.167 C 248.167 63.258,248.054 63.333,247.917 63.333 C 247.779 63.333,247.667 63.258,247.667 63.167 C 247.667 63.075,247.779 63.000,247.917 63.000 C 248.054 63.000,248.167 63.075,248.167 63.167 M252.167 69.066 C 252.167 69.285,252.054 69.508,251.917 69.560 C 251.729 69.632,251.667 69.533,251.667 69.161 C 251.667 68.833,251.751 68.667,251.917 68.667 C 252.069 68.667,252.167 68.822,252.167 69.066 M324.207 69.917 C 324.164 70.146,324.099 70.333,324.064 70.333 C 324.029 70.333,324.000 70.146,324.000 69.917 C 324.000 69.688,324.065 69.500,324.144 69.500 C 324.223 69.500,324.251 69.688,324.207 69.917 M398.115 70.958 C 398.073 71.119,398.039 70.987,398.039 70.667 C 398.039 70.346,398.073 70.215,398.115 70.375 C 398.157 70.535,398.157 70.798,398.115 70.958 M324.948 71.792 C 324.906 71.952,324.872 71.821,324.872 71.500 C 324.872 71.179,324.906 71.048,324.948 71.208 C 324.990 71.369,324.990 71.631,324.948 71.792 M325.782 73.458 C 325.740 73.619,325.705 73.487,325.705 73.167 C 325.705 72.846,325.740 72.715,325.782 72.875 C 325.823 73.035,325.823 73.298,325.782 73.458 M211.489 83.458 C 211.497 89.762,211.441 93.508,211.337 93.667 C 211.227 93.833,211.171 90.493,211.169 83.708 C 211.168 77.543,211.228 73.500,211.321 73.500 C 211.414 73.500,211.481 77.458,211.489 83.458 M224.667 73.750 C 224.667 73.968,223.891 74.000,218.687 74.000 C 213.575 74.000,212.677 73.964,212.500 73.750 C 212.316 73.529,212.999 73.500,218.480 73.500 C 223.868 73.500,224.667 73.532,224.667 73.750 M296.250 74.510 C 295.266 74.713,285.833 74.705,285.833 74.500 C 285.833 74.392,287.779 74.340,291.375 74.352 C 294.776 74.364,296.659 74.425,296.250 74.510 M225.089 75.069 C 225.264 75.336,225.631 75.538,226.177 75.669 C 226.651 75.783,227.221 76.073,227.521 76.353 C 227.807 76.620,228.351 77.047,228.729 77.301 C 229.107 77.554,229.517 77.970,229.639 78.225 C 229.762 78.480,229.968 78.729,230.098 78.779 C 230.227 78.828,230.333 79.082,230.333 79.343 C 230.333 79.617,230.509 80.005,230.750 80.266 L 231.167 80.715 231.167 84.255 L 231.167 87.795 230.750 88.068 C 230.429 88.279,230.333 88.483,230.333 88.964 C 230.333 89.406,230.237 89.647,230.000 89.795 C 229.584 90.055,229.571 90.437,229.972 90.652 C 230.199 90.773,230.258 90.950,230.202 91.332 C 230.161 91.616,230.079 91.822,230.022 91.790 C 228.836 91.139,228.261 91.107,228.078 91.682 C 228.023 91.857,227.843 92.000,227.678 92.000 C 227.513 92.000,227.188 92.150,226.955 92.333 C 226.721 92.517,226.295 92.667,226.008 92.667 C 225.672 92.667,225.335 92.816,225.066 93.085 L 224.647 93.504 218.532 93.460 L 212.417 93.417 212.374 84.269 C 212.342 77.652,212.383 75.058,212.519 74.894 C 212.672 74.710,213.855 74.667,218.767 74.667 L 224.826 74.667 225.089 75.069 M327.029 74.871 C 326.739 75.161,326.786 75.992,327.100 76.113 C 327.247 76.169,327.433 76.111,327.514 75.983 C 327.886 75.396,327.466 74.434,327.029 74.871 M254.121 76.205 C 254.084 76.505,254.053 76.300,254.052 75.750 C 254.051 75.200,254.081 74.955,254.119 75.205 C 254.157 75.456,254.158 75.906,254.121 76.205 M158.672 78.667 C 158.672 80.933,158.726 81.999,158.833 81.833 C 158.922 81.696,158.995 80.271,158.995 78.667 C 158.995 77.063,158.922 75.637,158.833 75.500 C 158.726 75.334,158.672 76.400,158.672 78.667 M230.230 77.208 C 230.313 77.555,230.278 77.667,230.087 77.667 C 229.807 77.667,229.790 77.595,229.940 77.035 C 230.060 76.587,230.084 76.601,230.230 77.208 M301.833 77.177 C 301.833 77.766,301.578 77.704,301.460 77.086 C 301.406 76.804,301.454 76.667,301.606 76.667 C 301.748 76.667,301.833 76.858,301.833 77.177 M255.625 80.536 L 256.167 80.676 256.167 83.834 L 256.167 86.991 255.669 87.249 C 255.055 87.566,254.959 87.929,255.028 89.648 C 255.059 90.392,255.027 91.001,254.958 91.000 C 254.571 90.999,254.835 87.013,255.250 86.598 C 255.940 85.908,255.857 81.802,255.149 81.578 C 254.859 81.486,254.836 81.306,254.865 79.364 L 254.897 77.250 254.990 78.823 L 255.083 80.397 255.625 80.536 M376.500 78.750 C 376.500 78.979,376.435 79.167,376.356 79.167 C 376.277 79.167,376.249 78.979,376.293 78.750 C 376.336 78.521,376.401 78.333,376.436 78.333 C 376.471 78.333,376.500 78.521,376.500 78.750 M327.862 78.882 C 327.427 79.407,327.333 82.998,327.333 99.231 C 327.333 116.940,327.322 116.667,328.065 116.667 C 328.666 116.667,328.676 116.335,328.610 98.083 C 328.542 79.014,328.506 78.106,327.862 78.882 M377.263 80.793 C 377.082 80.974,377.030 80.749,377.137 80.250 L 377.245 79.750 377.301 80.224 C 377.333 80.484,377.315 80.740,377.263 80.793 M232.644 84.292 C 232.623 87.595,232.607 87.776,232.470 86.333 C 232.335 84.916,232.432 80.667,232.600 80.667 C 232.637 80.667,232.656 82.298,232.644 84.292 M158.939 85.117 C 158.881 85.175,158.833 85.585,158.833 86.028 C 158.833 86.888,159.010 87.018,159.685 86.657 C 160.072 86.449,160.110 85.056,159.728 85.056 C 159.610 85.056,159.558 85.126,159.611 85.211 C 159.664 85.297,159.558 85.287,159.375 85.189 C 159.193 85.092,158.996 85.059,158.939 85.117 M254.119 93.125 C 254.081 93.377,254.050 93.171,254.050 92.667 C 254.050 92.162,254.081 91.956,254.119 92.208 C 254.158 92.460,254.158 92.873,254.119 93.125 M226.125 94.115 C 225.965 94.157,225.702 94.157,225.542 94.115 C 225.381 94.073,225.512 94.039,225.833 94.039 C 226.154 94.039,226.285 94.073,226.125 94.115 M221.719 94.958 C 220.052 94.985,217.277 94.985,215.553 94.958 C 213.828 94.931,215.192 94.909,218.583 94.909 C 221.975 94.909,223.386 94.931,221.719 94.958 M157.429 97.229 C 157.375 97.499,157.373 97.762,157.424 97.812 C 157.605 97.994,158.084 97.542,158.133 97.144 C 158.210 96.509,157.557 96.588,157.429 97.229 M252.167 99.333 C 252.167 99.667,252.083 99.833,251.917 99.833 C 251.750 99.833,251.667 99.667,251.667 99.333 C 251.667 99.000,251.750 98.833,251.917 98.833 C 252.083 98.833,252.167 99.000,252.167 99.333 M155.532 101.090 C 155.563 101.910,155.782 101.972,155.782 101.161 C 155.782 100.797,155.721 100.500,155.646 100.500 C 155.571 100.500,155.520 100.766,155.532 101.090 M154.848 103.273 C 154.826 103.805,155.346 104.351,155.765 104.237 C 156.034 104.163,156.117 104.002,156.128 103.529 C 156.140 102.989,156.123 102.963,155.987 103.307 C 155.902 103.522,155.870 103.758,155.915 103.831 C 156.018 103.998,155.524 104.201,155.321 104.076 C 155.239 104.025,155.103 103.744,155.018 103.450 C 154.906 103.064,154.859 103.015,154.848 103.273 M0.000 131.083 L 0.000 157.333 26.250 157.333 L 52.500 157.333 52.500 131.083 L 52.500 104.833 26.250 104.833 L 0.000 104.833 0.000 131.083 M237.833 113.230 C 237.833 113.264,237.721 113.386,237.583 113.500 C 237.379 113.670,237.333 113.659,237.333 113.437 C 237.333 113.288,237.446 113.167,237.583 113.167 C 237.721 113.167,237.833 113.195,237.833 113.230 M149.792 115.423 C 149.386 115.966,149.425 116.267,149.903 116.267 C 150.217 116.267,150.320 116.163,150.374 115.797 C 150.470 115.142,150.154 114.938,149.792 115.423 M230.333 116.484 C 230.333 116.567,229.887 116.595,229.336 116.545 C 228.696 116.487,228.256 116.524,228.106 116.648 C 227.924 116.799,227.851 116.785,227.775 116.588 C 227.692 116.373,227.883 116.333,229.005 116.333 C 229.736 116.333,230.333 116.401,230.333 116.484 M262.394 117.750 C 262.098 118.520,261.819 118.500,272.880 118.500 C 283.971 118.500,284.514 118.462,283.593 117.750 C 283.314 117.534,281.860 117.500,272.880 117.500 C 263.798 117.500,262.477 117.531,262.394 117.750 M305.333 117.750 C 304.719 118.490,304.858 118.500,316.169 118.500 C 327.485 118.500,327.189 118.521,326.894 117.750 C 326.810 117.531,325.463 117.500,316.169 117.500 C 306.925 117.500,305.514 117.533,305.333 117.750 M335.909 117.749 C 334.975 118.470,335.512 118.505,346.659 118.460 L 357.083 118.417 357.083 118.000 L 357.083 117.583 346.659 117.540 C 337.579 117.503,336.192 117.530,335.909 117.749 M378.833 117.750 C 378.220 118.490,378.369 118.500,389.520 118.500 L 400.000 118.500 400.000 118.000 L 400.000 117.500 389.520 117.500 C 380.409 117.500,379.014 117.533,378.833 117.750 M144.333 123.759 C 144.333 124.048,144.793 125.000,144.932 125.000 C 145.623 125.000,145.884 124.131,145.292 123.806 C 144.714 123.489,144.333 123.470,144.333 123.759 M142.987 126.266 C 142.980 126.349,142.949 126.548,142.919 126.709 C 142.888 126.870,142.931 126.959,143.015 126.908 C 143.239 126.769,143.199 127.064,142.958 127.331 C 142.844 127.457,142.975 127.422,143.250 127.251 C 144.072 126.742,144.445 126.125,143.835 126.285 C 143.647 126.334,143.551 126.453,143.614 126.561 C 143.674 126.665,143.561 126.607,143.362 126.433 C 143.163 126.258,142.994 126.183,142.987 126.266 M141.919 127.991 C 141.863 128.171,141.718 128.279,141.597 128.232 C 141.471 128.184,141.339 128.295,141.288 128.491 C 141.238 128.679,141.266 128.833,141.349 128.833 C 141.432 128.833,141.500 128.950,141.500 129.093 C 141.500 129.247,141.422 129.305,141.308 129.234 C 141.188 129.160,141.160 129.188,141.234 129.308 C 141.299 129.413,141.269 129.500,141.167 129.500 C 141.064 129.500,141.032 129.583,141.094 129.684 C 141.174 129.813,141.252 129.800,141.352 129.643 C 141.430 129.518,141.498 129.492,141.503 129.583 C 141.507 129.675,141.587 129.618,141.681 129.457 C 141.775 129.296,141.804 129.088,141.747 128.995 C 141.689 128.901,141.704 128.836,141.779 128.849 C 142.149 128.913,142.315 128.793,142.470 128.348 C 142.563 128.080,142.596 127.818,142.542 127.764 C 142.339 127.562,142.019 127.679,141.919 127.991 M139.560 130.417 C 139.508 130.554,139.328 130.667,139.161 130.667 C 138.884 130.667,138.889 130.701,139.219 131.071 C 139.470 131.353,139.617 131.416,139.704 131.279 C 139.796 131.135,139.829 131.140,139.831 131.298 C 139.833 131.474,139.876 131.474,140.065 131.298 C 140.233 131.143,140.244 131.050,140.107 130.961 C 139.970 130.873,139.976 130.838,140.126 130.836 C 140.294 130.834,140.295 130.767,140.128 130.500 C 139.880 130.103,139.691 130.075,139.560 130.417 M138.345 132.468 C 138.339 132.588,138.266 132.645,138.184 132.594 C 138.102 132.543,137.992 132.615,137.939 132.753 C 137.886 132.890,137.750 132.984,137.636 132.960 C 137.403 132.911,137.301 133.627,137.523 133.764 C 137.602 133.813,137.667 133.782,137.667 133.695 C 137.667 133.608,137.787 133.547,137.933 133.560 C 138.316 133.593,138.663 132.990,138.495 132.583 C 138.419 132.400,138.351 132.348,138.345 132.468 M136.167 134.504 C 135.820 134.867,135.824 135.262,136.175 135.288 C 136.518 135.314,136.958 134.863,136.950 134.494 C 136.943 134.163,136.487 134.168,136.167 134.504 M131.770 138.259 C 131.702 138.434,131.737 138.478,131.877 138.393 C 132.015 138.310,132.008 138.362,131.856 138.550 C 131.731 138.704,131.551 138.781,131.455 138.722 C 131.354 138.660,131.332 138.696,131.402 138.810 C 131.469 138.918,131.612 138.952,131.720 138.887 C 131.832 138.820,131.818 138.891,131.688 139.051 C 131.293 139.539,131.874 139.397,132.583 138.833 C 132.929 138.558,133.123 138.333,133.013 138.333 C 132.903 138.333,132.865 138.251,132.927 138.150 C 133.009 138.017,132.946 138.017,132.697 138.150 C 132.471 138.272,132.318 138.277,132.250 138.167 C 132.099 137.922,131.883 137.963,131.770 138.259 M130.067 140.140 C 130.123 140.231,130.112 140.336,130.043 140.375 C 129.973 140.414,130.029 140.420,130.167 140.389 C 130.332 140.352,130.308 140.417,130.093 140.583 C 129.775 140.829,129.776 140.833,130.117 140.833 C 130.595 140.833,130.706 140.438,130.299 140.184 C 130.115 140.069,130.011 140.050,130.067 140.140 M126.833 142.417 C 126.833 142.554,126.721 142.667,126.583 142.667 C 126.312 142.667,126.267 142.820,126.461 143.083 C 126.672 143.371,127.000 143.346,127.003 143.042 C 127.005 142.813,127.036 142.799,127.149 142.977 C 127.333 143.267,127.486 142.907,127.370 142.458 C 127.278 142.103,126.833 142.068,126.833 142.417 M123.000 145.107 C 123.000 145.236,123.534 145.654,123.708 145.661 C 123.777 145.664,123.833 145.592,123.833 145.500 C 123.833 145.408,123.721 145.333,123.583 145.333 C 123.446 145.333,123.333 145.258,123.333 145.167 C 123.333 145.075,123.258 145.000,123.167 145.000 C 123.075 145.000,123.000 145.048,123.000 145.107 M113.878 150.157 C 113.712 150.423,113.722 150.531,113.932 150.742 C 114.262 151.071,114.778 151.076,114.778 150.750 C 114.778 150.612,114.715 150.500,114.639 150.500 C 114.563 150.500,114.500 150.383,114.500 150.240 C 114.500 150.097,114.431 150.023,114.348 150.075 C 114.264 150.126,114.170 150.093,114.139 149.999 C 114.108 149.906,113.990 149.977,113.878 150.157 M112.503 150.758 C 112.499 150.970,112.843 151.333,113.047 151.333 C 113.128 151.333,113.168 151.253,113.135 151.154 C 113.102 151.056,113.010 150.987,112.931 151.002 C 112.852 151.016,112.724 150.928,112.646 150.806 C 112.569 150.683,112.504 150.662,112.503 150.758 M112.485 151.531 C 112.308 151.657,112.332 151.671,112.583 151.589 C 112.801 151.518,112.859 151.537,112.750 151.643 C 112.658 151.732,112.396 151.839,112.167 151.880 C 111.804 151.945,111.818 151.958,112.271 151.977 C 112.841 152.002,113.351 151.606,112.947 151.452 C 112.822 151.403,112.614 151.439,112.485 151.531 M109.886 152.792 C 109.829 152.952,109.670 153.215,109.532 153.375 C 109.154 153.815,109.603 153.750,110.156 153.284 C 110.523 152.976,110.569 152.863,110.396 152.701 C 110.106 152.430,110.008 152.447,109.886 152.792 M94.667 157.083 C 94.667 157.222,94.815 157.333,95.000 157.333 C 95.185 157.333,95.333 157.222,95.333 157.083 C 95.333 156.944,95.185 156.833,95.000 156.833 C 94.815 156.833,94.667 156.944,94.667 157.083 " stroke="none" fill="#442b2b" fill-rule="evenodd"></path><path id="path4" d="M129.121 52.332 L 105.158 52.417 105.165 64.965 C 105.171 78.268,105.026 82.400,104.497 84.000 C 104.331 84.504,104.142 85.217,104.079 85.583 C 104.015 85.950,103.871 86.400,103.758 86.583 C 103.646 86.767,103.506 87.161,103.447 87.460 C 102.887 90.323,98.705 96.163,95.417 98.674 C 94.775 99.163,94.175 99.651,94.083 99.757 C 93.839 100.038,92.625 100.756,90.503 101.874 C 89.290 102.513,86.592 103.499,86.051 103.501 C 85.886 103.502,85.525 103.625,85.250 103.774 C 84.975 103.924,84.112 104.112,83.333 104.192 C 82.554 104.272,81.354 104.420,80.667 104.521 C 79.874 104.637,74.510 104.728,66.000 104.770 L 52.583 104.836 52.541 131.085 L 52.499 157.333 52.874 157.333 L 53.250 157.333 53.206 131.385 C 53.182 117.114,53.221 105.379,53.292 105.308 C 53.364 105.236,59.723 105.156,67.424 105.130 L 81.425 105.083 81.902 104.708 C 82.298 104.397,82.585 104.333,83.604 104.333 C 84.426 104.333,85.118 104.224,85.707 104.000 C 86.189 103.817,86.731 103.667,86.911 103.667 C 87.197 103.667,87.900 103.453,89.083 103.005 C 89.641 102.795,90.547 102.339,91.250 101.915 C 92.177 101.356,92.997 100.867,93.570 100.534 C 93.838 100.378,94.363 99.964,94.737 99.614 C 95.111 99.265,95.642 98.861,95.917 98.716 C 96.401 98.462,98.573 96.360,98.915 95.814 C 99.007 95.666,99.552 94.967,100.125 94.261 C 100.698 93.556,101.167 92.894,101.167 92.791 C 101.167 92.689,101.307 92.450,101.480 92.261 C 101.864 91.838,102.832 90.000,102.833 89.693 C 102.833 89.570,102.975 89.290,103.147 89.070 C 103.320 88.850,103.515 88.313,103.580 87.877 C 103.644 87.440,103.830 86.959,103.992 86.807 C 104.159 86.650,104.337 86.147,104.404 85.641 C 104.469 85.152,104.640 84.621,104.784 84.462 C 104.980 84.245,105.082 83.559,105.192 81.712 C 105.272 80.358,105.412 78.936,105.502 78.551 C 105.603 78.124,105.667 72.993,105.667 65.343 L 105.667 52.833 129.486 52.833 C 142.587 52.833,153.425 52.788,153.570 52.732 C 153.979 52.575,153.891 52.160,153.458 52.207 C 153.252 52.230,142.300 52.286,129.121 52.332 M155.335 52.581 C 155.222 52.718,155.062 52.789,154.981 52.738 C 154.900 52.688,154.833 52.772,154.833 52.925 C 154.833 53.102,154.923 53.168,155.081 53.107 C 155.283 53.030,155.293 53.068,155.138 53.317 C 154.775 53.898,155.205 54.310,155.792 53.944 C 155.906 53.872,156.000 53.888,156.000 53.979 C 156.000 54.204,155.442 54.365,155.107 54.236 C 154.926 54.166,154.833 54.218,154.833 54.389 C 154.833 54.559,154.949 54.625,155.172 54.582 C 155.411 54.536,155.497 54.596,155.464 54.783 C 155.438 54.929,155.521 55.085,155.649 55.129 C 155.820 55.189,155.859 55.097,155.797 54.772 C 155.637 53.938,156.373 54.437,156.749 55.417 C 156.895 55.798,156.978 55.905,156.942 55.667 C 156.833 54.949,156.759 54.769,156.457 54.506 C 156.282 54.353,156.135 53.933,156.093 53.460 C 155.990 52.325,155.765 52.064,155.335 52.581 M155.515 55.884 C 155.593 56.156,155.772 56.506,155.912 56.661 C 156.052 56.817,156.111 57.006,156.042 57.082 C 155.973 57.158,156.015 57.163,156.136 57.094 C 156.313 56.991,156.304 56.911,156.094 56.679 C 155.951 56.520,155.833 56.165,155.833 55.890 C 155.833 55.575,155.748 55.389,155.603 55.389 C 155.427 55.389,155.406 55.505,155.515 55.884 M156.592 57.276 C 156.524 57.546,156.556 57.765,156.675 57.838 C 156.802 57.917,156.810 57.995,156.699 58.063 C 156.515 58.177,156.522 58.470,156.715 58.780 C 156.790 58.899,156.707 59.018,156.505 59.082 C 156.238 59.166,156.213 59.231,156.378 59.408 C 156.502 59.542,156.624 59.566,156.685 59.468 C 156.741 59.378,156.832 59.424,156.888 59.569 C 156.944 59.715,157.104 59.833,157.245 59.833 C 157.400 59.833,157.500 59.983,157.500 60.214 C 157.500 60.484,157.597 60.595,157.833 60.595 C 158.237 60.595,158.306 59.876,157.917 59.727 C 157.779 59.674,157.667 59.487,157.667 59.310 C 157.667 59.134,157.555 58.947,157.418 58.894 C 157.281 58.841,157.211 58.730,157.262 58.646 C 157.314 58.563,157.426 58.538,157.512 58.590 C 157.597 58.643,157.667 58.569,157.667 58.427 C 157.667 58.284,157.610 58.176,157.542 58.186 C 157.194 58.241,157.134 58.144,157.397 57.952 C 157.615 57.792,157.661 57.618,157.574 57.273 C 157.445 56.757,157.235 56.862,157.120 57.500 C 157.057 57.849,157.042 57.829,157.023 57.375 C 156.995 56.721,156.745 56.664,156.592 57.276 M157.000 63.581 C 157.000 63.711,157.188 64.006,157.417 64.235 C 157.868 64.686,157.942 64.588,157.644 63.934 C 157.428 63.459,157.000 63.225,157.000 63.581 M158.443 65.279 C 158.186 65.536,158.339 66.095,158.667 66.095 C 158.866 66.095,159.000 65.984,159.000 65.818 C 159.000 65.498,158.606 65.117,158.443 65.279 M158.098 67.051 C 157.941 67.837,157.996 68.867,158.167 68.333 C 158.240 68.104,158.308 68.015,158.317 68.135 C 158.326 68.255,158.419 68.300,158.525 68.234 C 158.631 68.169,158.818 68.254,158.942 68.423 C 159.139 68.692,159.167 68.596,159.167 67.645 L 159.167 66.561 158.681 66.561 C 158.278 66.561,158.180 66.643,158.098 67.051 M159.191 69.167 C 159.137 69.631,158.869 69.883,158.403 69.908 C 158.148 69.921,157.909 70.023,157.872 70.134 C 157.824 70.278,157.975 70.309,158.393 70.243 L 158.982 70.149 158.886 71.301 C 158.821 72.076,158.851 72.491,158.978 72.570 C 159.086 72.637,159.167 72.580,159.167 72.436 C 159.167 72.080,159.510 71.914,159.683 72.187 C 159.763 72.313,159.835 72.867,159.842 73.417 C 159.850 73.967,159.927 74.567,160.013 74.750 C 160.114 74.966,160.135 74.324,160.071 72.935 C 159.978 70.931,159.792 70.000,159.484 70.000 C 159.413 70.000,159.324 69.756,159.287 69.458 C 159.250 69.160,159.207 69.029,159.191 69.167 M158.917 78.667 C 158.917 81.004,158.940 82.635,158.968 82.292 C 159.023 81.633,159.376 81.436,159.574 81.954 C 159.669 82.200,159.707 82.206,159.846 81.995 C 159.953 81.832,159.975 82.198,159.910 83.083 C 159.777 84.913,159.696 85.262,159.457 85.024 C 159.236 84.803,158.833 84.769,158.833 84.972 C 158.833 85.049,158.927 85.118,159.042 85.126 C 159.156 85.133,159.406 85.177,159.597 85.222 C 159.788 85.267,159.967 85.216,159.995 85.110 C 160.126 84.608,160.133 75.118,160.003 75.417 L 159.857 75.750 159.840 75.417 C 159.824 75.104,159.809 75.101,159.601 75.375 C 159.251 75.837,159.024 75.718,158.968 75.042 C 158.940 74.698,158.917 76.329,158.917 78.667 M158.542 85.750 C 158.544 86.117,158.578 86.247,158.618 86.040 C 158.658 85.832,158.656 85.532,158.615 85.373 C 158.573 85.214,158.540 85.383,158.542 85.750 M158.917 87.797 C 158.917 88.304,158.855 88.419,158.574 88.433 C 158.293 88.448,158.243 88.370,158.298 87.995 C 158.335 87.745,158.294 87.496,158.207 87.442 C 157.998 87.312,157.955 89.105,158.152 89.750 C 158.236 90.025,158.312 90.138,158.322 90.000 C 158.337 89.778,158.358 89.778,158.515 90.000 C 158.649 90.189,158.713 90.199,158.777 90.041 C 158.824 89.925,158.920 89.867,158.990 89.911 C 159.220 90.052,159.344 87.606,159.119 87.381 C 158.960 87.222,158.917 87.312,158.917 87.797 M157.479 92.895 C 157.370 93.136,157.217 93.333,157.140 93.333 C 157.063 93.333,157.000 93.481,157.000 93.661 C 157.000 94.201,157.474 93.870,157.659 93.201 C 157.860 92.473,157.754 92.293,157.479 92.895 M156.667 97.828 C 156.667 97.917,156.570 97.953,156.452 97.907 C 156.300 97.849,156.237 98.017,156.233 98.486 C 156.231 98.849,156.305 99.132,156.398 99.115 C 156.491 99.097,156.573 99.351,156.581 99.678 C 156.595 100.215,156.558 100.266,156.208 100.199 C 155.994 100.159,155.831 100.191,155.846 100.271 C 155.861 100.351,155.858 100.454,155.840 100.500 C 155.723 100.800,155.780 101.667,155.917 101.669 C 156.008 101.671,155.982 101.736,155.858 101.815 C 155.685 101.924,155.675 102.037,155.816 102.301 C 156.122 102.872,156.020 102.951,155.667 102.417 C 155.443 102.079,155.335 102.008,155.334 102.196 C 155.334 102.350,155.231 102.579,155.106 102.704 C 154.563 103.247,155.335 104.383,155.923 103.907 C 156.103 103.761,156.144 103.697,156.013 103.765 C 155.838 103.856,155.805 103.813,155.888 103.597 C 155.950 103.437,156.000 103.240,156.000 103.160 C 156.000 103.079,156.187 102.841,156.415 102.629 C 156.855 102.221,157.263 100.485,156.860 100.734 C 156.753 100.799,156.667 100.774,156.667 100.677 C 156.667 100.579,156.746 100.500,156.843 100.500 C 156.940 100.500,156.966 100.413,156.901 100.308 C 156.830 100.194,156.855 100.160,156.961 100.226 C 157.333 100.456,157.667 99.831,157.644 98.946 C 157.631 98.472,157.590 98.271,157.553 98.500 C 157.515 98.729,157.401 99.130,157.299 99.391 L 157.113 99.866 156.896 99.475 C 156.621 98.979,156.606 98.128,156.867 97.867 C 157.022 97.711,157.022 97.667,156.867 97.667 C 156.757 97.667,156.667 97.739,156.667 97.828 M154.883 104.255 C 154.910 104.630,154.826 104.744,154.417 104.880 C 153.788 105.088,153.807 105.069,153.926 105.380 C 154.099 105.832,154.456 105.848,154.407 105.402 C 154.374 105.102,154.443 105.000,154.681 105.000 C 154.889 105.000,155.000 105.116,155.000 105.333 C 155.000 105.517,155.075 105.667,155.167 105.667 C 155.258 105.667,155.333 105.479,155.333 105.250 C 155.333 105.021,155.406 104.833,155.494 104.833 C 155.583 104.833,155.741 104.672,155.847 104.475 C 156.014 104.162,156.001 104.131,155.745 104.229 C 155.570 104.296,155.330 104.232,155.150 104.068 C 154.866 103.811,154.851 103.822,154.883 104.255 M152.541 109.123 C 152.425 109.163,152.374 109.264,152.425 109.348 C 152.477 109.431,152.437 109.500,152.337 109.500 C 152.219 109.500,152.230 109.583,152.368 109.733 C 152.495 109.870,152.656 109.908,152.759 109.824 C 152.855 109.745,153.111 109.727,153.326 109.783 C 153.603 109.855,153.683 109.828,153.598 109.690 C 153.531 109.583,153.407 109.538,153.322 109.590 C 153.236 109.643,153.167 109.602,153.167 109.500 C 153.167 109.398,153.097 109.357,153.013 109.409 C 152.928 109.461,152.834 109.402,152.804 109.278 C 152.774 109.153,152.656 109.084,152.541 109.123 M151.792 110.732 C 151.453 110.989,151.406 111.332,151.708 111.336 C 151.864 111.338,151.867 111.370,151.721 111.463 C 151.586 111.549,151.680 111.732,152.021 112.049 C 152.383 112.386,152.503 112.435,152.467 112.231 C 152.439 112.077,152.521 111.915,152.648 111.871 C 152.803 111.817,152.836 111.861,152.747 112.004 C 152.657 112.150,152.681 112.177,152.822 112.090 C 152.961 112.004,152.974 111.907,152.861 111.794 C 152.768 111.702,152.732 111.523,152.781 111.396 C 152.833 111.260,152.760 111.167,152.601 111.167 C 152.444 111.167,152.333 111.028,152.333 110.833 C 152.333 110.447,152.200 110.422,151.792 110.732 M151.243 112.345 C 151.182 112.443,151.045 112.489,150.937 112.447 C 150.815 112.401,150.748 112.535,150.760 112.802 C 150.770 113.038,150.866 113.261,150.972 113.296 C 151.079 113.332,151.167 113.492,151.167 113.653 C 151.167 113.853,151.285 113.935,151.542 113.915 C 151.834 113.893,151.906 113.798,151.868 113.485 C 151.828 113.165,151.853 113.134,151.990 113.333 C 152.131 113.538,152.162 113.515,152.164 113.204 C 152.166 112.949,152.027 112.772,151.740 112.663 C 151.505 112.574,151.360 112.425,151.416 112.334 C 151.473 112.242,151.482 112.167,151.436 112.167 C 151.391 112.167,151.303 112.247,151.243 112.345 M150.520 114.458 C 150.430 114.619,150.314 114.731,150.262 114.708 C 150.028 114.606,150.001 114.690,150.167 115.000 C 150.399 115.434,150.938 115.427,151.174 114.987 C 151.530 114.322,150.887 113.802,150.520 114.458 M149.586 116.329 C 149.411 116.612,149.946 116.849,150.165 116.585 C 150.280 116.447,150.346 116.328,150.312 116.321 C 149.800 116.215,149.655 116.217,149.586 116.329 M148.833 117.347 C 148.833 117.448,148.665 117.679,148.458 117.861 C 148.252 118.043,148.196 118.136,148.333 118.067 C 148.511 117.979,148.496 118.042,148.281 118.287 C 148.047 118.556,148.028 118.655,148.198 118.734 C 148.318 118.790,148.224 118.799,147.988 118.755 C 147.590 118.681,147.565 118.713,147.635 119.193 C 147.821 120.459,148.833 120.448,148.833 119.180 C 148.833 118.782,148.920 118.613,149.155 118.551 C 149.511 118.458,149.700 118.114,149.575 117.788 C 149.459 117.485,148.833 117.113,148.833 117.347 M145.836 122.302 C 145.834 122.513,145.774 122.649,145.700 122.604 C 145.627 122.559,145.483 122.574,145.380 122.638 C 145.261 122.711,145.339 122.823,145.591 122.942 C 146.128 123.196,146.357 122.898,146.059 122.333 L 145.838 121.917 145.836 122.302 M144.167 124.517 C 144.167 124.625,144.298 124.812,144.458 124.932 C 144.731 125.136,144.721 125.178,144.312 125.563 C 143.977 125.879,143.829 125.929,143.678 125.779 C 143.526 125.629,143.505 125.648,143.586 125.862 C 143.665 126.068,143.613 126.128,143.388 126.090 C 143.220 126.062,143.101 125.958,143.123 125.859 C 143.145 125.760,143.053 125.721,142.920 125.772 C 142.786 125.823,142.684 125.914,142.692 125.974 C 142.745 126.378,142.630 126.667,142.417 126.667 C 142.279 126.667,142.167 126.784,142.167 126.927 C 142.167 127.069,142.235 127.144,142.319 127.092 C 142.403 127.040,142.510 127.092,142.556 127.207 C 142.602 127.322,142.646 127.243,142.654 127.032 C 142.661 126.820,142.738 126.691,142.826 126.746 C 142.914 126.800,142.940 126.973,142.885 127.130 C 142.803 127.364,142.826 127.378,143.009 127.208 C 143.175 127.054,143.185 126.951,143.046 126.813 C 142.686 126.452,142.999 126.115,143.383 126.451 C 143.570 126.616,143.669 126.656,143.602 126.542 C 143.526 126.411,143.579 126.333,143.745 126.333 C 143.891 126.333,144.053 126.224,144.104 126.090 C 144.155 125.956,144.334 125.803,144.500 125.750 C 145.013 125.587,145.052 125.141,144.590 124.712 C 144.357 124.496,144.167 124.408,144.167 124.517 M143.611 125.111 C 143.424 125.298,143.487 125.500,143.732 125.500 C 143.860 125.500,144.008 125.388,144.060 125.250 C 144.156 124.999,143.825 124.897,143.611 125.111 M141.363 127.645 C 141.185 127.757,141.198 127.841,141.429 128.071 C 141.726 128.369,141.991 128.199,141.997 127.708 C 142.000 127.470,141.688 127.439,141.363 127.645 M140.875 128.701 C 140.898 128.811,140.804 128.905,140.667 128.909 C 140.437 128.916,140.405 129.016,140.475 129.510 C 140.489 129.607,140.575 129.640,140.667 129.583 C 140.758 129.527,140.833 129.560,140.833 129.657 C 140.833 129.754,140.913 129.833,141.010 129.833 C 141.107 129.833,141.140 129.758,141.083 129.667 C 141.027 129.575,141.062 129.500,141.162 129.500 C 141.471 129.500,141.546 129.022,141.278 128.754 C 140.972 128.448,140.818 128.428,140.875 128.701 M139.667 129.898 C 139.667 129.962,139.817 130.175,140.000 130.372 C 140.183 130.569,140.333 130.652,140.333 130.557 C 140.333 130.463,140.183 130.249,140.000 130.083 C 139.817 129.917,139.667 129.834,139.667 129.898 M138.339 131.656 C 138.108 132.088,138.102 132.857,138.333 132.500 C 138.471 132.286,138.495 132.292,138.497 132.542 C 138.503 133.190,139.276 132.729,139.418 131.993 L 139.490 131.618 139.094 131.990 L 138.698 132.362 138.588 132.016 C 138.528 131.825,138.525 131.594,138.582 131.501 C 138.640 131.409,138.647 131.333,138.599 131.333 C 138.551 131.333,138.434 131.478,138.339 131.656 M137.366 132.513 C 137.429 132.807,137.690 133.005,137.867 132.896 C 138.063 132.775,138.029 132.333,137.823 132.333 C 137.726 132.333,137.703 132.427,137.772 132.542 C 137.852 132.675,137.792 132.665,137.606 132.513 C 137.354 132.309,137.321 132.309,137.366 132.513 M136.980 133.285 C 136.969 133.449,136.971 133.645,136.984 133.721 C 136.998 133.796,136.935 133.813,136.845 133.757 C 136.755 133.701,136.724 133.545,136.776 133.409 C 136.843 133.235,136.792 133.193,136.603 133.266 C 136.456 133.322,136.371 133.425,136.414 133.495 C 136.510 133.651,135.926 134.203,135.799 134.077 C 135.749 134.027,135.662 134.105,135.606 134.251 C 135.550 134.398,135.573 134.475,135.657 134.423 C 135.741 134.371,135.858 134.405,135.917 134.500 C 136.071 134.750,136.333 134.534,136.333 134.157 C 136.333 133.979,136.406 133.833,136.495 133.833 C 136.584 133.833,136.608 133.959,136.549 134.112 C 136.467 134.326,136.509 134.365,136.730 134.281 C 136.901 134.215,136.976 134.237,136.915 134.335 C 136.859 134.426,136.929 134.500,137.070 134.500 C 137.356 134.500,137.937 133.715,137.773 133.550 C 137.714 133.492,137.667 133.536,137.667 133.649 C 137.667 133.761,137.590 133.806,137.497 133.748 C 137.404 133.691,137.359 133.593,137.396 133.530 C 137.434 133.468,137.360 133.320,137.233 133.202 C 137.040 133.024,136.997 133.039,136.980 133.285 M135.452 135.167 C 135.401 135.362,135.224 135.500,135.025 135.500 C 134.506 135.500,134.460 135.762,134.942 135.981 C 135.293 136.141,135.449 136.130,135.770 135.919 C 136.139 135.677,136.365 135.025,136.002 135.249 C 135.907 135.307,135.879 135.240,135.936 135.092 C 135.999 134.930,135.943 134.833,135.787 134.833 C 135.651 134.833,135.500 134.983,135.452 135.167 M133.271 136.800 C 133.203 136.910,133.006 137.000,132.833 137.000 C 132.661 137.000,132.465 137.088,132.399 137.195 C 132.316 137.330,132.377 137.355,132.598 137.278 C 132.912 137.168,132.912 137.170,132.597 137.413 C 132.287 137.653,132.292 137.673,132.749 138.097 L 133.220 138.533 133.943 137.767 C 134.743 136.921,134.833 136.667,134.333 136.667 C 134.150 136.667,134.000 136.742,134.000 136.833 C 134.000 137.069,133.541 137.041,133.461 136.800 C 133.409 136.644,133.367 136.644,133.271 136.800 M131.404 138.384 C 131.313 138.585,131.147 138.731,131.036 138.708 C 130.747 138.649,130.786 138.845,131.109 139.081 C 131.420 139.309,131.312 139.577,130.800 139.851 C 130.488 140.018,130.461 139.999,130.546 139.676 C 130.656 139.256,130.005 139.229,129.866 139.648 C 129.819 139.791,129.864 139.834,129.983 139.761 C 130.095 139.691,130.156 139.732,130.129 139.859 C 130.068 140.149,130.727 140.235,131.175 139.996 C 131.457 139.844,131.519 139.686,131.468 139.243 C 131.411 138.760,131.438 138.710,131.659 138.878 C 131.801 138.985,131.861 139.007,131.793 138.927 C 131.725 138.846,131.745 138.690,131.837 138.579 C 131.951 138.441,131.936 138.321,131.788 138.198 C 131.624 138.063,131.530 138.108,131.404 138.384 M129.596 140.278 C 129.514 140.490,129.443 140.509,129.295 140.361 C 129.188 140.254,129.035 140.167,128.955 140.167 C 128.875 140.167,128.922 140.279,129.060 140.417 C 129.197 140.554,129.383 140.667,129.473 140.667 C 129.658 140.667,129.641 140.975,129.439 141.300 C 129.269 141.572,128.833 141.259,128.833 140.864 C 128.833 140.653,128.783 140.665,128.571 140.926 C 128.427 141.104,128.349 141.167,128.399 141.066 C 128.457 140.948,128.345 140.909,128.086 140.959 C 127.695 141.033,127.508 141.999,127.885 142.000 C 127.959 142.000,127.973 142.075,127.917 142.167 C 127.858 142.261,127.996 142.333,128.234 142.333 C 128.676 142.333,130.075 141.090,129.919 140.837 C 129.873 140.762,129.956 140.655,130.103 140.599 C 130.320 140.516,130.332 140.449,130.165 140.248 C 129.897 139.925,129.728 139.934,129.596 140.278 M128.304 141.618 C 128.080 141.888,128.056 141.887,127.944 141.594 C 127.883 141.435,127.957 141.363,128.168 141.379 C 128.406 141.397,128.439 141.456,128.304 141.618 M126.917 142.010 C 126.601 142.136,126.603 142.144,126.958 142.155 C 127.195 142.162,127.338 142.275,127.346 142.458 C 127.354 142.622,127.396 142.661,127.442 142.548 C 127.589 142.185,127.278 141.866,126.917 142.010 M126.094 142.812 C 125.958 143.076,125.891 143.335,125.945 143.389 C 125.998 143.443,125.700 143.461,125.281 143.430 C 124.711 143.387,124.496 143.438,124.421 143.631 C 124.236 144.113,124.633 144.245,124.988 143.818 L 125.322 143.417 125.328 143.842 C 125.333 144.219,125.240 144.287,124.509 144.436 C 124.056 144.529,123.720 144.549,123.762 144.481 C 123.804 144.412,123.771 144.315,123.688 144.263 C 123.606 144.212,123.497 144.327,123.447 144.519 C 123.397 144.710,123.281 144.821,123.189 144.764 C 123.098 144.707,122.976 144.737,122.918 144.831 C 122.861 144.924,122.931 145.000,123.073 145.000 C 123.216 145.000,123.333 145.075,123.333 145.167 C 123.333 145.258,123.446 145.333,123.583 145.333 C 123.721 145.333,123.833 145.420,123.833 145.526 C 123.833 145.635,123.977 145.588,124.166 145.417 C 124.420 145.187,124.455 145.063,124.312 144.891 C 124.164 144.712,124.217 144.667,124.573 144.667 C 124.855 144.667,124.978 144.734,124.906 144.850 C 124.717 145.157,125.543 144.651,125.999 144.181 C 126.570 143.591,126.958 143.078,126.726 143.217 C 126.621 143.280,126.490 143.213,126.434 143.069 C 126.292 142.697,126.303 142.667,126.583 142.667 C 126.721 142.667,126.833 142.592,126.833 142.500 C 126.833 142.145,126.329 142.357,126.094 142.812 M122.278 145.111 C 122.081 145.308,122.159 145.492,122.400 145.400 C 122.528 145.351,122.682 145.390,122.742 145.487 C 122.810 145.598,122.745 145.622,122.565 145.553 C 122.382 145.483,122.319 145.508,122.390 145.623 C 122.461 145.739,122.375 145.769,122.146 145.710 C 121.910 145.648,121.736 145.716,121.626 145.912 C 121.492 146.151,121.434 146.164,121.316 145.978 C 121.203 145.800,121.171 145.815,121.169 146.047 C 121.168 146.210,120.998 146.412,120.792 146.495 L 120.417 146.646 120.782 146.656 C 120.983 146.662,121.193 146.592,121.250 146.500 C 121.398 146.261,122.000 146.294,122.003 146.542 C 122.004 146.671,122.052 146.687,122.128 146.583 C 122.195 146.492,122.438 146.396,122.667 146.372 C 123.055 146.330,123.500 145.939,123.500 145.639 C 123.500 145.379,122.459 144.930,122.278 145.111 M119.525 147.105 C 119.425 147.276,119.341 147.351,119.338 147.271 C 119.336 147.191,119.224 147.216,119.091 147.327 C 118.957 147.438,118.766 147.478,118.667 147.417 C 118.390 147.245,118.000 147.657,118.000 148.122 C 118.000 148.437,118.065 148.511,118.274 148.431 C 118.485 148.350,118.506 148.376,118.366 148.544 C 118.229 148.709,118.255 148.762,118.474 148.762 C 118.639 148.762,118.762 148.635,118.762 148.464 C 118.762 148.192,118.619 148.095,118.292 148.147 C 118.048 148.185,118.172 148.009,118.520 147.823 C 118.763 147.692,118.839 147.690,118.761 147.815 C 118.693 147.925,118.744 147.960,118.891 147.903 C 119.226 147.775,119.406 148.129,119.157 148.428 C 119.045 148.564,118.993 148.715,119.041 148.764 C 119.151 148.873,119.753 148.038,119.891 147.583 C 120.044 147.080,119.757 146.705,119.525 147.105 M119.497 147.895 C 119.499 147.975,119.388 147.948,119.252 147.835 C 119.115 147.722,119.050 147.554,119.106 147.463 C 119.209 147.296,119.492 147.609,119.497 147.895 M117.250 148.333 C 117.307 148.425,117.241 148.500,117.103 148.500 C 116.966 148.500,116.811 148.568,116.760 148.651 C 116.708 148.734,116.828 148.760,117.026 148.708 C 117.304 148.636,117.353 148.668,117.244 148.849 C 117.125 149.047,117.146 149.049,117.377 148.861 C 117.528 148.738,117.723 148.682,117.810 148.736 C 117.900 148.791,117.931 148.687,117.881 148.496 C 117.797 148.177,117.780 148.174,117.562 148.454 C 117.347 148.731,117.339 148.732,117.434 148.458 C 117.493 148.289,117.454 148.167,117.341 148.167 C 117.234 148.167,117.193 148.242,117.250 148.333 M117.623 149.231 C 117.680 149.322,117.600 149.343,117.435 149.280 C 117.265 149.215,117.191 149.237,117.251 149.335 C 117.308 149.427,117.165 149.500,116.927 149.500 C 116.692 149.500,116.500 149.408,116.500 149.296 C 116.500 149.184,116.331 149.268,116.125 149.482 C 115.863 149.755,115.813 149.896,115.959 149.950 C 116.075 149.993,116.126 150.097,116.075 150.181 C 116.023 150.265,116.170 150.333,116.401 150.333 C 116.651 150.333,116.894 150.198,117.000 150.000 C 117.098 149.817,117.308 149.667,117.466 149.667 C 117.624 149.667,117.837 149.533,117.939 149.369 C 118.092 149.125,118.071 149.071,117.825 149.071 C 117.660 149.071,117.569 149.143,117.623 149.231 M113.593 150.097 C 113.323 150.295,113.314 150.333,113.542 150.333 C 113.691 150.333,113.863 150.253,113.924 150.156 C 114.100 149.870,113.942 149.842,113.593 150.097 M112.269 150.761 C 112.214 150.904,112.095 150.975,112.003 150.919 C 111.898 150.854,111.888 150.951,111.975 151.187 C 112.132 151.611,112.817 151.758,112.758 151.355 C 112.738 151.215,112.638 151.074,112.536 151.040 C 112.435 151.006,112.393 150.871,112.444 150.739 C 112.494 150.608,112.498 150.500,112.452 150.500 C 112.406 150.500,112.324 150.617,112.269 150.761 M109.895 152.113 C 110.028 152.351,109.732 152.574,109.590 152.343 C 109.534 152.254,109.380 152.223,109.246 152.275 C 109.112 152.326,109.039 152.428,109.083 152.500 C 109.201 152.690,108.715 152.842,108.389 152.716 C 108.188 152.639,108.149 152.670,108.249 152.831 C 108.351 152.997,108.296 153.029,108.026 152.958 C 107.828 152.907,107.703 152.924,107.748 152.997 C 107.793 153.069,107.662 153.176,107.456 153.234 C 107.116 153.330,107.109 153.354,107.375 153.511 C 107.763 153.740,107.743 153.953,107.321 154.087 C 107.105 154.156,106.863 154.095,106.675 153.924 C 106.407 153.682,106.364 153.680,106.276 153.909 C 106.222 154.051,106.041 154.167,105.874 154.167 C 105.690 154.167,105.561 154.298,105.546 154.500 C 105.515 154.905,106.084 154.949,106.574 154.578 C 106.751 154.443,107.156 154.333,107.472 154.333 C 108.107 154.333,108.486 153.978,108.495 153.375 C 108.501 152.954,108.912 152.864,109.060 153.250 C 109.113 153.387,109.090 153.500,109.009 153.500 C 108.928 153.500,108.823 153.406,108.777 153.292 C 108.725 153.163,108.688 153.192,108.680 153.365 C 108.658 153.824,108.950 153.865,109.363 153.460 C 109.992 152.845,110.231 152.328,109.989 152.105 C 109.836 151.964,109.812 151.966,109.895 152.113 M110.410 152.511 C 110.252 152.766,110.412 152.869,110.861 152.801 L 111.250 152.743 110.885 152.538 C 110.631 152.395,110.487 152.386,110.410 152.511 M101.333 154.875 C 101.333 154.944,101.521 155.000,101.750 155.000 C 102.280 155.000,102.308 155.455,101.792 155.659 C 101.506 155.772,101.352 155.733,101.145 155.493 C 100.868 155.172,100.800 155.173,99.525 155.519 C 98.930 155.681,98.774 155.674,98.657 155.484 C 98.445 155.142,98.175 155.511,98.341 155.917 C 98.415 156.100,98.482 156.156,98.488 156.042 C 98.503 155.781,99.000 155.763,99.000 156.023 C 99.000 156.128,98.869 156.315,98.708 156.440 C 98.431 156.657,98.431 156.663,98.708 156.566 C 98.872 156.509,99.000 156.546,99.000 156.649 C 99.000 156.750,99.206 156.823,99.458 156.811 C 99.851 156.791,99.863 156.778,99.542 156.716 C 99.102 156.631,99.008 155.884,99.417 155.727 C 99.812 155.575,100.468 155.805,100.552 156.125 C 100.620 156.387,100.630 156.386,100.647 156.106 C 100.664 155.844,100.757 155.813,101.248 155.905 C 102.473 156.135,103.725 155.495,102.996 155.012 C 102.599 154.748,101.333 154.644,101.333 154.875 M94.833 156.417 C 94.833 156.554,94.758 156.667,94.667 156.667 C 94.575 156.667,94.500 156.731,94.500 156.810 C 94.500 156.889,94.688 156.918,94.917 156.874 C 95.222 156.816,95.333 156.866,95.333 157.064 C 95.333 157.212,95.446 157.333,95.583 157.333 C 95.721 157.333,95.833 157.221,95.833 157.083 C 95.833 156.946,95.763 156.833,95.678 156.833 C 95.592 156.833,95.475 156.683,95.417 156.500 C 95.294 156.113,94.833 156.047,94.833 156.417 M95.567 156.360 C 95.485 156.492,95.561 156.523,95.807 156.459 C 96.005 156.407,96.167 156.424,96.167 156.496 C 96.167 156.569,96.317 156.667,96.500 156.715 C 96.683 156.763,96.833 156.922,96.833 157.068 C 96.833 157.261,96.995 157.333,97.428 157.333 C 97.950 157.333,98.017 157.287,97.970 156.958 C 97.916 156.578,97.167 156.295,97.167 156.655 C 97.167 156.753,97.017 156.683,96.833 156.500 C 96.468 156.134,95.755 156.055,95.567 156.360 M96.167 157.167 C 96.167 157.258,96.279 157.333,96.417 157.333 C 96.554 157.333,96.667 157.258,96.667 157.167 C 96.667 157.075,96.554 157.000,96.417 157.000 C 96.279 157.000,96.167 157.075,96.167 157.167 " stroke="none" fill="#1494cc" fill-rule="evenodd"></path></g></svg>